<?xml version="1.0" encoding="utf-8"?>
<!-- Generator: Adobe Illustrator 23.0.0, SVG Export Plug-In . SVG Version: 6.00 Build 0)  -->
<svg version="1.1" id="home" xmlns="http://www.w3.org/2000/svg" xmlns:xlink="http://www.w3.org/1999/xlink" x="0px" y="0px"
	 viewBox="0 0 1080 800" style="enable-background:new 0 0 1080 800;" xml:space="preserve">
<g>
	<g>
		<path style="fill:#2461AB;" d="M255.7,46.4c-1.2-2.2-3.4-4-6.6-5.6c-3.2-1.6-6.3-2.4-9.3-2.4c-2.5,0-4.5,0.7-6,2
			c-1.5,1.3-2.3,3.3-2.3,6c0,2.4,0.9,4.4,2.6,6c1.8,1.6,3.9,2.9,6.5,3.6c2.6,0.8,5.4,1.8,8.4,3c3.1,1.2,5.9,2.5,8.4,3.8
			c2.6,1.3,4.7,3.4,6.5,6.3c1.8,2.8,2.6,6.3,2.6,10.3c0,4.4-0.8,8.2-2.5,11.4c-1.7,3.2-4,5.7-6.9,7.4c-2.9,1.8-6,3-9.3,3.9
			c-3.3,0.8-6.9,1.2-10.7,1.2c-6.9,0-12.8-1-17.7-2.9c-5-1.9-7.4-4.5-7.4-7.6c0-2.3,0.6-4.2,1.9-5.6c1.3-1.4,3.4-2.9,6.5-4.6
			c1.9,2.6,4.7,4.8,8.4,6.5c3.7,1.8,7.3,2.6,10.8,2.6c3,0,5.4-0.7,7.3-2.1c1.9-1.4,2.8-3.6,2.8-6.6c0-2.8-1.2-5.1-3.6-6.8
			c-2.4-1.7-5.3-3.1-8.8-4.1c-3.4-1-6.9-2.3-10.3-3.7c-3.4-1.5-6.4-3.9-8.8-7.2c-2.4-3.4-3.6-7.7-3.6-13c0-3.8,0.8-7.1,2.5-10
			c1.6-2.8,3.9-5,6.7-6.7c2.8-1.6,5.9-2.8,9.2-3.5c3.3-0.7,6.9-1.1,10.8-1.1c6.1,0,11.4,0.9,15.8,2.7c4.4,1.8,6.6,4.3,6.6,7.5
			c0,1.9-0.9,3.8-2.7,5.5C261.6,44.2,259,45.5,255.7,46.4z"/>
		<path style="fill:#2461AB;" d="M282.7,43.9c-2.8,0-5.2-1-7.2-3c-2-2-3-4.5-3-7.5c0-2.9,1-5.4,3.1-7.4c2.1-2,4.5-3,7.3-3
			c2.8,0,5.1,1,7.1,3c2,2,3,4.5,3,7.4c0,3-1,5.5-3.1,7.5C287.8,42.9,285.4,43.9,282.7,43.9z M282.9,48.6c2.8,0,5,0.5,6.6,1.5
			c1.6,1,2.3,2.9,2.3,5.7c0,0.4-0.1,3.7-0.4,9.8c-0.3,6.1-0.4,10.7-0.4,13.8c0,10.6,0.6,17.8,1.9,21.6c-3.1,1-6.2,1.5-9.3,1.5
			c-3.5,0-5.9-0.6-7.3-1.8c-1.4-1.2-2.1-3-2.1-5.4c0-1.2,0.1-4,0.2-8.4c0.1-4.4,0.2-7.9,0.2-10.5c0-10.7-0.3-19.4-0.8-26.2
			C276.7,49.1,279.7,48.6,282.9,48.6z"/>
		<path style="fill:#2461AB;" d="M326.7,47.8c5.5,0,10.3,1.4,14.3,4.1c4,2.8,6,6.9,6,12.3c0,11-7.9,16.5-23.7,16.5
			c-1.4,0-4-0.1-7.7-0.2c0,4.2,1.1,7.3,3.2,9.3c2.1,1.9,4.8,2.9,7.9,2.9c5.5,0,9.8-1.8,12.9-5.4c1.7,0.8,3.1,1.9,4.2,3.3
			c1.1,1.4,1.6,2.8,1.6,4.2c0,2.2-1.3,4-4,5.4c-2.6,1.3-5.2,2.2-7.7,2.5c-2.5,0.3-4.9,0.4-7.2,0.4c-8.2,0-14.9-2.3-20.1-6.8
			c-5.2-4.5-7.8-11.4-7.8-20.6c0-6.1,1.4-11.3,4.3-15.7c2.9-4.4,6.4-7.5,10.5-9.4C317.5,48.8,321.9,47.8,326.7,47.8z M325.8,58.5
			c-2.7,0-5,1.2-7,3.6c-2,2.4-3.1,6-3.1,10.7c2.1-0.1,3.6-0.3,4.4-0.4c0.9-0.1,2.1-0.4,3.7-0.7c1.6-0.4,2.8-0.9,3.5-1.5
			c0.7-0.6,1.4-1.5,2-2.7c0.6-1.2,0.9-2.6,0.9-4.3c0-1.2-0.4-2.3-1.2-3.2C328,59,327,58.5,325.8,58.5z"/>
		<path style="fill:#2461AB;" d="M352.9,50.1c3.1-1,6-1.5,8.7-1.5c5.4,0,8.5,2.2,9.3,6.6c4.5-4.8,9.7-7.3,15.4-7.3
			c7.2,0,12,2.9,14.6,8.6c4.6-5.7,10.1-8.6,16.5-8.6c4.8,0,8.7,1.5,11.7,4.4c3.1,2.9,4.6,7,4.6,12.4c0,0.2-0.1,2.8-0.2,8
			c-0.1,5.2-0.2,9.2-0.2,11.9c0,6.4,0.6,11.9,1.9,16.3c-3.2,1-6.4,1.5-9.7,1.5c-6,0-8.9-2.3-8.9-6.8c0-2.7,0.1-7.6,0.3-14.8
			c0.2-7.2,0.3-11.5,0.3-13c0-3.1-0.5-5.3-1.6-6.9c-1-1.5-2.4-2.3-4.1-2.3c-2.8,0-5.8,1.8-9.1,5.5c0.1,9.5,0.2,16.4,0.2,20.7
			c0,6.6,0.2,12.3,0.6,17.2c-2.5,0.2-4.7,0.3-6.6,0.3c-7.5,0-11.2-1.8-11.2-5.4c0-0.4,0.1-3.1,0.3-8.2c0.2-5.1,0.3-10.1,0.3-15v-6.3
			c0-3.1-0.5-5.3-1.6-6.8c-1.1-1.5-2.4-2.2-4.1-2.2c-2.8,0-5.8,1.8-9.1,5.5c0.1,9.5,0.2,16.4,0.2,20.7c0,6.6,0.2,12.3,0.6,17.2
			c-2.5,0.2-4.7,0.3-6.6,0.3c-7.5,0-11.2-1.8-11.2-5.4c0-0.3,0.1-2.9,0.3-7.8c0.2-4.9,0.3-10,0.3-15.3
			C355,61.6,354.3,53.7,352.9,50.1z"/>
		<path style="fill:#2461AB;" d="M442.2,50.6c2.7-1.3,5.6-2,8.8-2c1.6,0,3,0.1,4.1,0.4c1.1,0.3,2.2,1,3.2,2.2c1,1.2,1.6,3,1.8,5.2
			c1.6-2.8,3.8-5,6.4-6.4c2.6-1.5,5.5-2.2,8.6-2.2c6.4,0,11.4,2.4,15,7.1c3.6,4.7,5.4,10.8,5.4,18.2c0,4.9-0.7,9.6-2.2,14
			c-1.5,4.4-3.9,8.2-7.4,11.3c-3.5,3.2-7.8,4.8-12.7,4.8c-4.9,0-9.1-1.6-12.6-4.9c0,0.4,0,2.5,0.1,6c0,3.6,0.1,6.1,0.1,7.4
			c0,1.4,0.1,3.4,0.3,6.1c0.1,2.7,0.4,5,0.7,6.8c0.3,1.8,0.7,3.4,1.1,4.8c-2.5,0.6-5.4,0.9-8.5,0.9c-4,0-6.7-0.5-8.2-1.5
			c-1.4-1-2.1-2.6-2.1-4.9c0-7.3,0.1-16.4,0.2-27.2s0.2-18.3,0.2-22.6C444.4,62.4,443.6,54.5,442.2,50.6z M460.8,90
			c2.5,1.7,5.4,2.6,8.9,2.6c3,0,5.2-1.8,6.7-5.3c1.5-3.5,2.2-7.7,2.2-12.5c0-5.5-0.7-9.6-2.1-12.2c-1.4-2.6-3.2-4-5.5-4
			c-3.8,0-7.2,1.9-10.3,5.6C460.8,70.6,460.8,79.2,460.8,90z"/>
		<path style="fill:#2461AB;" d="M511.1,48.6c2.8,0,5,0.5,6.6,1.5c1.6,1,2.3,2.9,2.3,5.7v1.5c2-2.4,4.4-4.5,7.2-6.5
			c2.8-1.9,5.6-2.9,8.3-2.9c2.2,0,3.8,0.5,5,1.5c1.2,1,1.8,2.3,1.8,4c0,3.1-1.3,6-4,8.9c-2.6-1.6-5-2.5-7.3-2.5
			c-3.3,0-7.1,2.3-11.5,6.8c-0.2,4.4-0.3,8.6-0.3,12.7c0,10.6,0.6,17.8,1.9,21.6c-3.1,1-6.2,1.5-9.3,1.5c-3.5,0-5.9-0.6-7.3-1.8
			c-1.4-1.2-2.1-3-2.1-5.4c0-1.2,0.1-4,0.2-8.4c0.1-4.4,0.2-7.9,0.2-10.5c0-10.7-0.3-19.4-0.8-26.2
			C504.9,49.1,507.9,48.6,511.1,48.6z"/>
		<path style="fill:#2461AB;" d="M571.4,47.8c5.5,0,10.3,1.4,14.3,4.1c4,2.8,6,6.9,6,12.3c0,11-7.9,16.5-23.7,16.5
			c-1.4,0-4-0.1-7.7-0.2c0,4.2,1.1,7.3,3.2,9.3c2.1,1.9,4.8,2.9,7.9,2.9c5.5,0,9.8-1.8,12.9-5.4c1.7,0.8,3.1,1.9,4.2,3.3
			c1.1,1.4,1.6,2.8,1.6,4.2c0,2.2-1.3,4-4,5.4c-2.6,1.3-5.2,2.2-7.7,2.5c-2.5,0.3-4.9,0.4-7.2,0.4c-8.2,0-14.9-2.3-20.1-6.8
			c-5.2-4.5-7.8-11.4-7.8-20.6c0-6.1,1.4-11.3,4.3-15.7c2.9-4.4,6.4-7.5,10.5-9.4C562.2,48.8,566.6,47.8,571.4,47.8z M570.5,58.5
			c-2.7,0-5,1.2-7,3.6c-2,2.4-3.1,6-3.1,10.7c2.1-0.1,3.6-0.3,4.4-0.4c0.9-0.1,2.1-0.4,3.7-0.7c1.6-0.4,2.8-0.9,3.5-1.5
			c0.7-0.6,1.4-1.5,2-2.7c0.6-1.2,0.9-2.6,0.9-4.3c0-1.2-0.4-2.3-1.2-3.2C572.7,59,571.7,58.5,570.5,58.5z"/>
		<path style="fill:#2461AB;" d="M653.5,65.8c-0.6-2.3-1.6-4.1-3.1-5.4c-1.5-1.3-3.1-1.9-4.9-1.9c-1.7,0-3.2,0.4-4.4,1.3
			c-1.2,0.9-1.8,2.2-1.8,3.9c0,1.8,0.9,3.2,2.6,4.2c1.8,1,3.9,1.9,6.4,2.5c2.5,0.6,5,1.4,7.5,2.3c2.5,0.9,4.6,2.5,6.4,4.6
			c1.8,2.2,2.6,4.9,2.6,8.3c0,5.7-2.3,10-6.8,12.9c-4.5,2.9-9.8,4.4-15.9,4.4c-1.9,0-3.8-0.1-5.7-0.3c-1.9-0.2-4-0.6-6.4-1.1
			c-2.4-0.6-4.4-1.5-5.8-2.9c-1.5-1.4-2.2-3.1-2.2-5.1c0-4,3-7.2,9.1-9.4c0.7,2.7,2.2,4.7,4.2,6c2.1,1.3,4.3,2,6.6,2
			c5,0,7.5-1.8,7.5-5.4c0-1.7-1.3-3.1-4-4.2c-2.6-1.1-5.5-2-8.7-2.7c-3.1-0.7-6-2.3-8.7-4.8c-2.6-2.5-4-5.8-4-10
			c0-5.3,2.3-9.5,6.8-12.7c4.5-3.2,9.6-4.8,15.3-4.8c2.6,0,5.2,0.3,7.9,0.8c2.6,0.6,5,1.6,7.2,3.2c2.2,1.6,3.2,3.6,3.2,5.9
			c0,2-0.9,3.7-2.7,5.2C659.9,64.4,657.1,65.4,653.5,65.8z"/>
		<path style="fill:#2461AB;" d="M697.4,47.8c5.5,0,10.3,1.4,14.3,4.1c4,2.8,6,6.9,6,12.3c0,11-7.9,16.5-23.7,16.5
			c-1.4,0-4-0.1-7.7-0.2c0,4.2,1.1,7.3,3.2,9.3c2.1,1.9,4.8,2.9,7.9,2.9c5.5,0,9.8-1.8,12.9-5.4c1.7,0.8,3.1,1.9,4.2,3.3
			c1.1,1.4,1.6,2.8,1.6,4.2c0,2.2-1.3,4-4,5.4c-2.6,1.3-5.2,2.2-7.7,2.5c-2.5,0.3-4.9,0.4-7.2,0.4c-8.2,0-14.9-2.3-20.1-6.8
			c-5.2-4.5-7.8-11.4-7.8-20.6c0-6.1,1.4-11.3,4.3-15.7c2.9-4.4,6.4-7.5,10.5-9.4C688.2,48.8,692.7,47.8,697.4,47.8z M696.5,58.5
			c-2.7,0-5,1.2-7,3.6c-2,2.4-3.1,6-3.1,10.7c2.1-0.1,3.6-0.3,4.4-0.4c0.9-0.1,2.1-0.4,3.7-0.7c1.6-0.4,2.8-0.9,3.5-1.5
			c0.7-0.6,1.4-1.5,2-2.7c0.6-1.2,0.9-2.6,0.9-4.3c0-1.2-0.4-2.3-1.2-3.2C698.7,59,697.7,58.5,696.5,58.5z"/>
		<path style="fill:#2461AB;" d="M733.2,48.6c2.8,0,5,0.5,6.6,1.5c1.6,1,2.3,2.9,2.3,5.7v1.5c2-2.4,4.4-4.5,7.2-6.5
			c2.8-1.9,5.6-2.9,8.3-2.9c2.2,0,3.8,0.5,5,1.5c1.2,1,1.8,2.3,1.8,4c0,3.1-1.3,6-4,8.9c-2.6-1.6-5-2.5-7.3-2.5
			c-3.3,0-7.1,2.3-11.5,6.8c-0.2,4.4-0.3,8.6-0.3,12.7c0,10.6,0.6,17.8,1.9,21.6c-3.1,1-6.2,1.5-9.3,1.5c-3.5,0-5.9-0.6-7.3-1.8
			c-1.4-1.2-2.1-3-2.1-5.4c0-1.2,0.1-4,0.2-8.4c0.1-4.4,0.2-7.9,0.2-10.5c0-10.7-0.3-19.4-0.8-26.2C726.9,49.1,730,48.6,733.2,48.6z
			"/>
		<path style="fill:#2461AB;" d="M778.3,67c-6.6-1.2-9.8-4-9.8-8.4c0-3,2.1-5.5,6.4-7.6c4.3-2.1,9.4-3.1,15.5-3.1
			c7.8,0,13.6,1.5,17.3,4.5c3.7,3,5.6,7.9,5.6,14.9c0,0.6,0,2.8-0.1,6.6c-0.1,3.8-0.1,6.6-0.1,8.5c0,8.6,0.7,15,2.1,19.2
			c-3.3,0.9-6.2,1.3-8.7,1.3c-5.4,0-8.5-2.2-9.4-6.5c-1.8,2.1-4.1,3.7-6.9,5c-2.8,1.2-5.6,1.8-8.4,1.8c-4.1,0-7.5-1.3-10.3-4
			c-2.8-2.6-4.2-6.6-4.2-11.8c0-4.2,0.8-7.2,2.5-9.2c1.7-1.9,4-3.4,6.9-4.4c5.7-1.8,12.4-2.9,20.1-3.4c0-4.5-0.5-7.7-1.5-9.6
			c-1-1.8-3.1-2.7-6.3-2.7c-1.9,0-3.9,0.8-6,2.3C780.8,62.2,779.3,64.3,778.3,67z M810.1,31.7c-1.8,1.1-5.9,3-12.4,5.8
			c-6.5,2.7-10.4,4.8-11.7,6.1c-2.6-2.1-3.9-4-3.9-5.7c0-1.4,1-2.9,2.9-4.3c1.9-1.5,4.2-2.7,6.7-3.9c2.5-1.1,5.3-2.7,8.3-4.6
			c3-2,5.3-4,6.9-6.1c3.9,2.2,5.9,4.7,5.9,7.7C812.8,28.9,811.9,30.6,810.1,31.7z M796.6,78.6c-2.2,0.4-4,0.7-5.1,1
			c-1.2,0.3-2.5,0.8-3.9,1.4c-1.4,0.6-2.3,1.5-2.9,2.5c-0.6,1-0.8,2.3-0.8,3.7c0,1.9,0.4,3.3,1.3,4.2c0.9,0.9,2,1.4,3.4,1.4
			c3.1,0,5.7-0.9,7.8-2.8c-0.1-0.7-0.1-1.8-0.1-3.4C796.3,84,796.4,81.3,796.6,78.6z"/>
		<path style="fill:#2461AB;" d="M851.5,65.8c-0.6-2.3-1.6-4.1-3.1-5.4c-1.5-1.3-3.1-1.9-4.9-1.9c-1.7,0-3.2,0.4-4.4,1.3
			c-1.2,0.9-1.8,2.2-1.8,3.9c0,1.8,0.9,3.2,2.6,4.2c1.8,1,3.9,1.9,6.4,2.5c2.5,0.6,5,1.4,7.5,2.3c2.5,0.9,4.6,2.5,6.4,4.6
			c1.8,2.2,2.6,4.9,2.6,8.3c0,5.7-2.3,10-6.8,12.9c-4.5,2.9-9.8,4.4-15.9,4.4c-1.9,0-3.8-0.1-5.7-0.3c-1.9-0.2-4-0.6-6.4-1.1
			c-2.4-0.6-4.4-1.5-5.8-2.9c-1.5-1.4-2.2-3.1-2.2-5.1c0-4,3-7.2,9.1-9.4c0.7,2.7,2.2,4.7,4.2,6c2.1,1.3,4.3,2,6.6,2
			c5,0,7.5-1.8,7.5-5.4c0-1.7-1.3-3.1-4-4.2c-2.6-1.1-5.5-2-8.7-2.7c-3.1-0.7-6-2.3-8.7-4.8c-2.6-2.5-4-5.8-4-10
			c0-5.3,2.3-9.5,6.8-12.7c4.5-3.2,9.6-4.8,15.3-4.8c2.6,0,5.2,0.3,7.9,0.8c2.6,0.6,5,1.6,7.2,3.2c2.2,1.6,3.2,3.6,3.2,5.9
			c0,2-0.9,3.7-2.7,5.2C857.9,64.4,855.2,65.4,851.5,65.8z"/>
	</g>
	<g>
		<g>
			<path style="fill:#FFCC25;" d="M193.2,226.3c1.6-11.6,2.4-28.6,2.4-51c0-18.9-0.7-32.9-2-41.8c8.8-1.2,18.1-1.8,28.1-1.8
				c6,0,11.5,0.4,16.5,1.3c5,0.9,9.6,2.3,13.8,4.2c4.2,1.9,7.5,4.7,9.9,8.2c2.4,3.5,3.6,7.7,3.6,12.6c0,10.6-5.4,17.7-16.3,21.2
				c7.1,2.3,12.3,5.6,15.4,9.7c3.2,4.1,4.7,9.6,4.7,16.4c0,6.9-2,12.8-5.9,17.6c-3.9,4.8-8.8,8.2-14.7,10.2c-5.9,2-12.4,3-19.6,3
				C214.9,235.9,202.9,232.7,193.2,226.3z M218.3,187.5c0,4.7-0.4,14.4-1.2,29c4.7,2.5,9.2,3.8,13.4,3.8c4.4,0,7.9-1.4,10.6-4.2
				c2.7-2.8,4-6.8,4-12c0-4.8-1.5-8.8-4.5-12.1c-3-3.3-7.5-5-13.5-5C223.9,187,221,187.2,218.3,187.5z M224.2,173.1
				c5.2,0,9.4-1.2,12.7-3.6c3.3-2.4,4.9-6,4.9-10.8c0-4.2-1.7-7.2-5-9c-3.3-1.8-7.4-2.7-12.3-2.7c-2.1,0-4.1,0.2-6,0.5
				c0.4,6.3,0.6,14.8,0.6,25.3C220.2,173,221.9,173.1,224.2,173.1z"/>
			<path style="fill:#FFCC25;" d="M291.6,155c-3.9,0-7.2-1.3-9.8-4c-2.7-2.7-4-6.1-4-10.3c0-4,1.4-7.3,4.3-10.1
				c2.8-2.7,6.2-4.1,9.9-4.1c3.8,0,7,1.4,9.7,4.1c2.7,2.7,4,6.1,4,10.1c0,4.1-1.4,7.5-4.3,10.2C298.5,153.6,295.2,155,291.6,155z
				 M291.9,161.4c3.9,0,6.9,0.7,9,2c2.1,1.3,3.2,3.9,3.2,7.8c0,0.6-0.2,5.1-0.5,13.4c-0.4,8.3-0.5,14.6-0.5,18.8
				c0,14.5,0.9,24.3,2.6,29.5c-4.3,1.3-8.5,2-12.7,2c-4.8,0-8.1-0.8-10-2.5c-1.9-1.7-2.8-4.1-2.8-7.4c0-1.6,0.1-5.4,0.2-11.5
				c0.2-6,0.2-10.8,0.2-14.4c0-14.6-0.4-26.5-1.1-35.7C283.4,162,287.5,161.4,291.9,161.4z"/>
			<path style="fill:#FFCC25;" d="M351.6,160.3c7.5,0,14,1.9,19.5,5.6c5.5,3.8,8.2,9.4,8.2,16.8c0,15.1-10.8,22.6-32.4,22.6
				c-1.9,0-5.4-0.1-10.5-0.3c0,5.8,1.5,10,4.4,12.7c2.9,2.6,6.5,4,10.8,4c7.5,0,13.4-2.4,17.6-7.3c2.3,1.1,4.2,2.6,5.7,4.5
				c1.5,1.9,2.2,3.8,2.2,5.7c0,3.1-1.8,5.5-5.4,7.3c-3.6,1.8-7.1,3-10.5,3.4c-3.4,0.4-6.7,0.6-9.8,0.6c-11.2,0-20.4-3.1-27.5-9.2
				c-7.1-6.2-10.7-15.5-10.7-28.2c0-8.3,2-15.5,5.9-21.5c3.9-6,8.7-10.2,14.4-12.8C339,161.6,345.1,160.3,351.6,160.3z M350.4,174.8
				c-3.7,0-6.9,1.7-9.6,5c-2.7,3.3-4.2,8.2-4.3,14.6c2.8-0.2,4.9-0.4,6-0.5c1.2-0.2,2.8-0.5,5-1c2.2-0.5,3.8-1.2,4.7-2.1
				c1-0.9,1.9-2.1,2.7-3.7c0.8-1.6,1.2-3.5,1.2-5.9c0-1.6-0.6-3.1-1.7-4.4C353.4,175.5,352,174.8,350.4,174.8z"/>
			<path style="fill:#FFCC25;" d="M387.4,163.4c4.2-1.3,8.1-2,11.9-2c7.4,0,11.7,3,12.7,9c6.6-6.6,14.1-9.9,22.6-9.9
				c6.9,0,12.6,2,17.1,6c4.5,4,6.7,9.6,6.7,16.9c0,0.2-0.1,3.9-0.2,11c-0.2,7.1-0.2,12.5-0.2,16.2c0,8.8,0.9,16.2,2.6,22.3
				c-4.4,1.3-8.8,2-13.3,2c-8.1,0-12.2-3.1-12.2-9.3c0-3.7,0.2-10.4,0.5-20.2c0.3-9.8,0.5-15.8,0.5-17.8c0-4.2-0.8-7.3-2.5-9.4
				c-1.7-2.1-3.8-3.1-6.5-3.1c-4.3,0-9,2.5-14.2,7.5c0.2,13,0.3,22.4,0.3,28.2c0,9,0.3,16.8,0.8,23.5c-3.4,0.3-6.4,0.5-9,0.5
				c-10.2,0-15.3-2.4-15.3-7.3c0-0.4,0.1-4,0.4-10.7c0.3-6.7,0.4-13.7,0.4-20.9C390.3,179.1,389.3,168.4,387.4,163.4z"/>
			<path style="fill:#FFCC25;" d="M523.6,160.3c4.2,0,7.3,0.6,9.2,1.9c2,1.3,3,3.4,3,6.5c0,5.9-2.3,15.4-6.9,28.4
				c-4.6,13-9.3,22.8-14.1,29.2c-4.1,5.7-10.1,8.6-18,8.6c-3.2,0-6.5-0.5-10.1-1.4c-2.2-11.2-6-24-11.4-38.5
				c-5.3-14.5-9.7-23.6-13.2-27.5c4.7-4.3,9.6-6.4,14.7-6.4c5.5,0,9.6,3.1,12.2,9.2c5.1,12.5,9.7,26.5,13.7,42
				c7.2-19,10.8-34,10.8-44.9c0-1.6-0.2-3.2-0.5-4.7C516.3,161.1,519.8,160.3,523.6,160.3z"/>
			<path style="fill:#FFCC25;" d="M578.1,160.3c7.5,0,14,1.9,19.5,5.6c5.5,3.8,8.2,9.4,8.2,16.8c0,15.1-10.8,22.6-32.4,22.6
				c-1.9,0-5.4-0.1-10.5-0.3c0,5.8,1.5,10,4.4,12.7c2.9,2.6,6.5,4,10.8,4c7.5,0,13.4-2.4,17.6-7.3c2.3,1.1,4.3,2.6,5.7,4.5
				c1.5,1.9,2.2,3.8,2.2,5.7c0,3.1-1.8,5.5-5.4,7.3c-3.6,1.8-7.1,3-10.5,3.4c-3.4,0.4-6.7,0.6-9.8,0.6c-11.2,0-20.4-3.1-27.5-9.2
				c-7.1-6.2-10.7-15.5-10.7-28.2c0-8.3,2-15.5,5.9-21.5c3.9-6,8.7-10.2,14.4-12.8C565.5,161.6,571.6,160.3,578.1,160.3z
				 M576.9,174.8c-3.7,0-6.9,1.7-9.6,5c-2.7,3.3-4.2,8.2-4.3,14.6c2.8-0.2,4.9-0.4,6-0.5c1.2-0.2,2.8-0.5,5-1
				c2.2-0.5,3.8-1.2,4.7-2.1c1-0.9,1.9-2.1,2.7-3.7c0.8-1.6,1.2-3.5,1.2-5.9c0-1.6-0.6-3.1-1.7-4.4
				C579.9,175.5,578.5,174.8,576.9,174.8z"/>
			<path style="fill:#FFCC25;" d="M613.9,163.4c4.2-1.3,8.1-2,11.9-2c7.4,0,11.7,3,12.7,9c6.6-6.6,14.1-9.9,22.6-9.9
				c6.9,0,12.6,2,17.1,6c4.5,4,6.7,9.6,6.7,16.9c0,0.2-0.1,3.9-0.2,11c-0.2,7.1-0.2,12.5-0.2,16.2c0,8.8,0.9,16.2,2.6,22.3
				c-4.4,1.3-8.8,2-13.3,2c-8.1,0-12.2-3.1-12.2-9.3c0-3.7,0.2-10.4,0.5-20.2c0.3-9.8,0.5-15.8,0.5-17.8c0-4.2-0.8-7.3-2.5-9.4
				c-1.7-2.1-3.8-3.1-6.5-3.1c-4.3,0-9,2.5-14.2,7.5c0.2,13,0.3,22.4,0.3,28.2c0,9,0.3,16.8,0.8,23.5c-3.4,0.3-6.4,0.5-9,0.5
				c-10.2,0-15.3-2.4-15.3-7.3c0-0.4,0.1-4,0.4-10.7c0.3-6.7,0.4-13.7,0.4-20.9C616.8,179.1,615.9,168.4,613.9,163.4z"/>
			<path style="fill:#FFCC25;" d="M710.1,155c-3.9,0-7.2-1.3-9.8-4c-2.7-2.7-4-6.1-4-10.3c0-4,1.4-7.3,4.3-10.1
				c2.8-2.7,6.2-4.1,9.9-4.1c3.8,0,7,1.4,9.7,4.1c2.7,2.7,4,6.1,4,10.1c0,4.1-1.4,7.5-4.3,10.2C717,153.6,713.7,155,710.1,155z
				 M710.4,161.4c3.9,0,6.9,0.7,9,2c2.1,1.3,3.2,3.9,3.2,7.8c0,0.6-0.2,5.1-0.5,13.4c-0.4,8.3-0.5,14.6-0.5,18.8
				c0,14.5,0.9,24.3,2.6,29.5c-4.3,1.3-8.5,2-12.7,2c-4.8,0-8.1-0.8-10-2.5c-1.9-1.7-2.8-4.1-2.8-7.4c0-1.6,0.1-5.4,0.2-11.5
				c0.2-6,0.2-10.8,0.2-14.4c0-14.6-0.4-26.5-1.1-35.7C701.9,162,706,161.4,710.4,161.4z"/>
			<path style="fill:#FFCC25;" d="M732,198.2c0-10.5,2.9-19.4,8.7-26.8c5.8-7.4,13-11.1,21.7-11.1c5.7,0,11.5,1.7,17.3,5.2
				c0.2-6.5,0.3-11.7,0.3-15.4c0-11.1-0.4-20.2-1.2-27.2c4.7-1.3,8.1-2,10.2-2c9.5,0,14.2,3.3,14.2,9.8c0,6-0.2,17.6-0.7,34.7
				c-0.5,17.1-0.7,28.8-0.7,35c0,16.1,1,27.2,2.9,33.3c-4.9,1.2-8.9,1.8-11.9,1.8c-4.3,0-7.3-0.8-9.2-2.4c-1.8-1.6-3.1-3.7-3.7-6.5
				c-2.6,2.7-5.7,5-9.2,6.7s-6.8,2.6-10,2.6c-7.8,0-14.6-3.6-20.2-10.7C734.8,218.1,732,209.1,732,198.2z M779,178.2
				c-3.1-2.2-6.2-3.4-9.5-3.4c-4.6,0-8.2,2-10.8,6c-2.6,4-4,9.3-4,16c0,7.3,1.3,13.4,4,18.1c2.6,4.7,5.9,7.1,9.8,7.1
				c4.5,0,8.1-1.5,10.8-4.6C779.1,196.4,779,183.4,779,178.2z"/>
			<path style="fill:#FFCC25;" d="M876,225.8c-6.8,6.7-15.8,10.1-26.9,10.1c-11.1,0-20-3.4-26.8-10.1c-6.8-6.7-10.2-15.7-10.2-26.9
				c0-11.7,3.4-21.1,10.2-28.1c6.8-7,15.7-10.5,26.8-10.5c11.1,0,20.1,3.5,26.9,10.5c6.8,7,10.2,16.4,10.2,28.1
				C886.3,210.1,882.9,219.1,876,225.8z M863.5,202c0-7.7-1.3-14.2-3.8-19.3c-2.5-5.1-6.1-7.7-10.5-7.7c-4.4,0-7.8,2.1-10.3,6.3
				c-2.5,4.2-3.7,9.7-3.7,16.5c0,6.7,1.2,12.3,3.7,16.7c2.5,4.4,5.9,6.6,10.3,6.6c4.6,0,8.1-1.8,10.6-5.3
				C862.3,212.3,863.5,207.7,863.5,202z"/>
		</g>
	</g>
</g>
<g>
	<g>
		<path style="fill:#1B4B7A;" d="M591.2,460.3c-1.8,0.4-158,93.9-158,93.9L617.3,484L591.2,460.3z"/>
		<path style="fill:#1B4B7A;" d="M788.3,571.8c-1.8,0.4-158,93.9-158,93.9l184.2-70.2L788.3,571.8z"/>
		<g>
			<g style="enable-background:new    ;">
				<g>
					<polygon style="fill:#4A8BCC;" points="611,344.2 646.4,323.6 646,467.3 610.6,487.9 					"/>
				</g>
				<g>
					<polygon style="fill:#4A8BCC;" points="611,342.8 646.4,322.1 646.4,323.6 611,344.2 					"/>
				</g>
				<g style="enable-background:new    ;">
					<defs>
						<path id="SVGID_1_" style="enable-background:new    ;" d="M633.9,292.1l35.5-20.6c-14.1,8.2-22.8,25.5-22.9,50.7L611,342.8
							C611,317.6,619.8,300.3,633.9,292.1z"/>
					</defs>
					<use xlink:href="#SVGID_1_"  style="overflow:visible;fill:#4A8BCC;"/>
					<clipPath id="SVGID_2_">
						<use xlink:href="#SVGID_1_"  style="overflow:visible;"/>
					</clipPath>
					<g style="clip-path:url(#SVGID_2_);enable-background:new    ;">
						<path style="fill:#4A8BCC;" d="M633.9,292.1l35.5-20.6c-5.4,3.1-10,7.6-13.6,13.4l-35.5,20.6
							C623.9,299.7,628.5,295.2,633.9,292.1"/>
						<path style="fill:#4A8BCC;" d="M620.2,305.4l35.5-20.6c-1,1.6-2,3.4-2.9,5.2l-35.5,20.6C618.2,308.8,619.2,307.1,620.2,305.4"
							/>
						<path style="fill:#4A8BCC;" d="M617.3,310.6l35.5-20.6c-0.7,1.4-1.3,2.9-1.9,4.5l-35.5,20.6
							C616,313.6,616.7,312.1,617.3,310.6"/>
						<path style="fill:#4A8BCC;" d="M615.4,315.1l35.5-20.6c-0.5,1.3-0.9,2.7-1.4,4.1l-35.5,20.6
							C614.5,317.8,615,316.5,615.4,315.1"/>
						<path style="fill:#4A8BCC;" d="M614.1,319.2l35.5-20.6c-0.4,1.3-0.7,2.6-1,4L613,323.3C613.4,321.9,613.7,320.5,614.1,319.2"
							/>
						<path style="fill:#4A8BCC;" d="M613,323.3l35.5-20.6c-0.3,1.3-0.6,2.6-0.8,3.9l-35.5,20.6C612.5,325.8,612.7,324.5,613,323.3"
							/>
						<path style="fill:#4A8BCC;" d="M612.3,327.2l35.5-20.6c-0.2,1.2-0.4,2.5-0.6,3.8L611.7,331C611.9,329.7,612,328.4,612.3,327.2
							"/>
						<path style="fill:#4A8BCC;" d="M611.7,331l35.5-20.6c-0.2,1.3-0.3,2.5-0.4,3.9l-35.5,20.6C611.4,333.5,611.5,332.2,611.7,331"
							/>
						<path style="fill:#4A8BCC;" d="M611.3,334.8l35.5-20.6c-0.1,1.2-0.2,2.5-0.2,3.8l-35.5,20.6
							C611.1,337.3,611.2,336.1,611.3,334.8"/>
						<path style="fill:#4A8BCC;" d="M611.1,338.6l35.5-20.6c-0.1,1.3-0.1,2.6-0.1,3.9L611,342.5C611,341.2,611,339.9,611.1,338.6"
							/>
						<path style="fill:#4A8BCC;" d="M611,342.5l35.5-20.6c0,0.1,0,0.2,0,0.2L611,342.8C611,342.7,611,342.6,611,342.5"/>
					</g>
				</g>
				<g>
					<polygon style="fill:#4A8BCC;" points="805.7,456.6 841.2,436 840.8,579.7 805.3,600.3 					"/>
				</g>
				<g style="enable-background:new    ;">
					<defs>
						<path id="SVGID_3_" style="enable-background:new    ;" d="M611.6,253.9l35.5-20.6c20.6-12,49.5-10,81.4,8.4L693,262.3
							C661.2,243.9,632.3,241.9,611.6,253.9z"/>
					</defs>
					<use xlink:href="#SVGID_3_"  style="overflow:visible;fill:#4A8BCC;"/>
					<clipPath id="SVGID_4_">
						<use xlink:href="#SVGID_3_"  style="overflow:visible;"/>
					</clipPath>
					<g style="clip-path:url(#SVGID_4_);enable-background:new    ;">
						<path style="fill:#4A8BCC;" d="M611.6,253.9l35.5-20.6c2.9-1.7,5.9-3.1,9.1-4.2l-35.5,20.6
							C617.5,250.8,614.5,252.2,611.6,253.9"/>
						<path style="fill:#4A8BCC;" d="M620.7,249.7l35.5-20.6c2.5-0.9,5.1-1.6,7.8-2.1l-35.5,20.6
							C625.8,248.1,623.2,248.8,620.7,249.7"/>
						<path style="fill:#4A8BCC;" d="M628.5,247.5l35.5-20.6c2.1-0.4,4.3-0.7,6.5-0.9L635,246.6
							C632.8,246.8,630.6,247.1,628.5,247.5"/>
						<path style="fill:#4A8BCC;" d="M635,246.6l35.5-20.6c1.9-0.2,3.9-0.3,5.9-0.3l-35.5,20.6C638.9,246.3,636.9,246.4,635,246.6"
							/>
						<path style="fill:#4A8BCC;" d="M640.9,246.3l35.5-20.6c1.7,0,3.5,0.1,5.3,0.2l-35.5,20.6C644.4,246.4,642.6,246.3,640.9,246.3
							"/>
						<path style="fill:#4A8BCC;" d="M646.2,246.5l35.5-20.6c1.7,0.1,3.4,0.3,5.1,0.5L651.3,247
							C649.6,246.8,647.8,246.6,646.2,246.5"/>
						<path style="fill:#4A8BCC;" d="M651.3,247l35.5-20.6c1.6,0.2,3.3,0.5,5,0.8l-35.5,20.6C654.6,247.5,652.9,247.2,651.3,247"/>
						<path style="fill:#4A8BCC;" d="M656.3,247.8l35.5-20.6c1.6,0.3,3.2,0.7,4.8,1.1L661,248.9
							C659.4,248.5,657.8,248.1,656.3,247.8"/>
						<path style="fill:#4A8BCC;" d="M661,248.9l35.5-20.6c1.6,0.4,3.2,0.8,4.8,1.3l-35.5,20.6C664.2,249.7,662.6,249.3,661,248.9"
							/>
						<path style="fill:#4A8BCC;" d="M665.8,250.2l35.5-20.6c1.5,0.5,3.1,1,4.6,1.5l-35.5,20.6C668.9,251.2,667.3,250.7,665.8,250.2
							"/>
						<path style="fill:#4A8BCC;" d="M670.4,251.7l35.5-20.6c1.6,0.5,3.1,1.1,4.7,1.8l-35.5,20.6C673.6,252.9,672,252.3,670.4,251.7
							"/>
						<path style="fill:#4A8BCC;" d="M675.1,253.5l35.5-20.6c1.5,0.6,3.1,1.3,4.7,2l-35.5,20.6C678.2,254.8,676.7,254.1,675.1,253.5
							"/>
						<path style="fill:#4A8BCC;" d="M679.8,255.5l35.5-20.6c1.6,0.7,3.1,1.4,4.7,2.2l-35.5,20.6
							C682.9,256.9,681.4,256.2,679.8,255.5"/>
						<path style="fill:#4A8BCC;" d="M684.5,257.7l35.5-20.6c1.6,0.8,3.2,1.6,4.8,2.5l-35.5,20.6
							C687.7,259.3,686.1,258.5,684.5,257.7"/>
						<path style="fill:#4A8BCC;" d="M689.3,260.2l35.5-20.6c1.2,0.7,2.5,1.4,3.7,2.1L693,262.3
							C691.8,261.5,690.5,260.9,689.3,260.2"/>
					</g>
				</g>
				<g>
					<polygon style="fill:#4A8BCC;" points="805.7,455.2 841.2,434.6 841.2,436 805.7,456.6 					"/>
				</g>
				<g style="enable-background:new    ;">
					<defs>
						<path id="SVGID_5_" style="enable-background:new    ;" d="M693,262.3l35.5-20.6c62.4,36,112.9,121.3,112.7,192.9l-35.5,20.6
							C805.9,383.6,755.4,298.3,693,262.3z"/>
					</defs>
					<use xlink:href="#SVGID_5_"  style="overflow:visible;fill:#4A8BCC;"/>
					<clipPath id="SVGID_6_">
						<use xlink:href="#SVGID_5_"  style="overflow:visible;"/>
					</clipPath>
					<g style="clip-path:url(#SVGID_6_);enable-background:new    ;">
						<path style="fill:#4A8BCC;" d="M693,262.3l35.5-20.6c0.4,0.2,0.8,0.4,1.1,0.7l-35.5,20.6C693.8,262.7,693.4,262.5,693,262.3"
							/>
						<path style="fill:#4A8BCC;" d="M694.2,262.9l35.5-20.6c1.7,1,3.3,2,4.9,3L699.1,266C697.5,264.9,695.8,263.9,694.2,262.9"/>
						<path style="fill:#4A8BCC;" d="M699.1,266l35.5-20.6c1.7,1.1,3.3,2.2,5,3.3l-35.5,20.6C702.4,268.1,700.8,267,699.1,266"/>
						<path style="fill:#4A8BCC;" d="M704.1,269.2l35.5-20.6c1.7,1.2,3.4,2.4,5.1,3.6l-35.5,20.6
							C707.5,271.6,705.8,270.4,704.1,269.2"/>
						<path style="fill:#4A8BCC;" d="M709.1,272.8l35.5-20.6c1.7,1.3,3.4,2.6,5.1,3.9l-35.5,20.6
							C712.6,275.4,710.9,274.1,709.1,272.8"/>
						<path style="fill:#4A8BCC;" d="M714.3,276.7l35.5-20.6c1.7,1.4,3.4,2.8,5.1,4.2l-35.5,20.6C717.7,279.5,716,278.1,714.3,276.7
							"/>
						<path style="fill:#4A8BCC;" d="M719.4,280.9l35.5-20.6c1.7,1.5,3.5,3,5.2,4.5l-35.5,20.6C722.9,283.9,721.1,282.4,719.4,280.9
							"/>
						<path style="fill:#4A8BCC;" d="M724.6,285.4l35.5-20.6c1.7,1.5,3.4,3.1,5.1,4.7l-35.5,20.6C727.9,288.5,726.3,287,724.6,285.4
							"/>
						<path style="fill:#4A8BCC;" d="M729.6,290.1l35.5-20.6c1.6,1.6,3.3,3.2,4.9,4.8l-35.5,20.6
							C732.9,293.3,731.2,291.7,729.6,290.1"/>
						<path style="fill:#4A8BCC;" d="M734.5,294.9l35.5-20.6c1.6,1.6,3.1,3.2,4.7,4.9l-35.5,20.6C737.6,298.2,736,296.5,734.5,294.9
							"/>
						<path style="fill:#4A8BCC;" d="M739.1,299.8l35.5-20.6c1.5,1.6,3,3.3,4.5,4.9l-35.5,20.6C742.1,303.1,740.6,301.5,739.1,299.8
							"/>
						<path style="fill:#4A8BCC;" d="M743.6,304.8l35.5-20.6c1.5,1.7,2.9,3.4,4.4,5.1L748,309.9
							C746.5,308.2,745.1,306.5,743.6,304.8"/>
						<path style="fill:#4A8BCC;" d="M748,309.9l35.5-20.6c1.4,1.7,2.9,3.5,4.3,5.3l-35.5,20.6C750.8,313.4,749.4,311.6,748,309.9"
							/>
						<path style="fill:#4A8BCC;" d="M752.3,315.2l35.5-20.6c1.7,2.1,3.4,4.3,5,6.5l-35.5,20.6C755.6,319.5,753.9,317.3,752.3,315.2
							"/>
						<path style="fill:#4A8BCC;" d="M757.2,321.7l35.5-20.6c2.4,3.2,4.7,6.6,7,9.9l-35.5,20.6C762,328.3,759.6,325,757.2,321.7"/>
						<path style="fill:#4A8BCC;" d="M764.2,331.7l35.5-20.6c3.1,4.6,6.1,9.4,8.9,14.2l-35.5,20.6
							C770.3,341,767.3,336.3,764.2,331.7"/>
						<path style="fill:#4A8BCC;" d="M773.1,345.9l35.5-20.6c1.8,3,3.5,6.1,5.1,9.2l-35.5,20.6C776.6,352,774.9,348.9,773.1,345.9"
							/>
						<path style="fill:#4A8BCC;" d="M778.3,355.1l35.5-20.6c1.1,2.1,2.2,4.1,3.2,6.2l-35.5,20.6
							C780.4,359.2,779.4,357.2,778.3,355.1"/>
						<path style="fill:#4A8BCC;" d="M781.5,361.3l35.5-20.6c1,2,1.9,3.9,2.9,5.9l-35.5,20.6C783.4,365.3,782.5,363.3,781.5,361.3"
							/>
						<path style="fill:#4A8BCC;" d="M784.3,367.2l35.5-20.6c0.8,1.7,1.6,3.5,2.4,5.2l-35.5,20.6C786,370.7,785.2,369,784.3,367.2"
							/>
						<path style="fill:#4A8BCC;" d="M786.7,372.5l35.5-20.6c0.8,1.7,1.5,3.5,2.3,5.3L789,377.7C788.2,376,787.5,374.2,786.7,372.5"
							/>
						<path style="fill:#4A8BCC;" d="M789,377.7l35.5-20.6c0.7,1.8,1.4,3.5,2.1,5.3L791.1,383C790.4,381.3,789.7,379.5,789,377.7"/>
						<path style="fill:#4A8BCC;" d="M791.1,383l35.5-20.6c0.7,1.8,1.4,3.6,2,5.3l-35.5,20.6C792.5,386.6,791.8,384.8,791.1,383"/>
						<path style="fill:#4A8BCC;" d="M793.1,388.4l35.5-20.6c0.7,1.9,1.3,3.7,2,5.6L795.1,394C794.4,392.1,793.8,390.2,793.1,388.4"
							/>
						<path style="fill:#4A8BCC;" d="M795.1,394l35.5-20.6c0.6,1.9,1.2,3.8,1.8,5.6l-35.5,20.6C796.3,397.7,795.7,395.8,795.1,394"
							/>
						<path style="fill:#4A8BCC;" d="M796.9,399.6l35.5-20.6c0.6,1.9,1.2,3.9,1.7,5.8l-35.5,20.6C798,403.5,797.5,401.5,796.9,399.6
							"/>
						<path style="fill:#4A8BCC;" d="M798.6,405.4l35.5-20.6c0.5,1.9,1,3.9,1.5,5.8l-35.5,20.6C799.6,409.3,799.1,407.4,798.6,405.4
							"/>
						<path style="fill:#4A8BCC;" d="M800.1,411.2l35.5-20.6c0.5,1.9,0.9,3.8,1.3,5.8L801.4,417C801,415.1,800.6,413.2,800.1,411.2"
							/>
						<path style="fill:#4A8BCC;" d="M801.4,417l35.5-20.6c0.4,1.9,0.8,3.8,1.2,5.7l-35.5,20.6C802.3,420.8,801.9,418.9,801.4,417"
							/>
						<path style="fill:#4A8BCC;" d="M802.6,422.7l35.5-20.6c0.4,1.9,0.7,3.7,1,5.6l-35.5,20.6C803.3,426.5,803,424.6,802.6,422.7"
							/>
						<path style="fill:#4A8BCC;" d="M803.6,428.3l35.5-20.6c0.3,1.9,0.6,3.7,0.8,5.6l-35.5,20.6C804.1,432,803.9,430.2,803.6,428.3
							"/>
						<path style="fill:#4A8BCC;" d="M804.4,433.9l35.5-20.6c0.2,1.8,0.4,3.6,0.6,5.4L805,439.3
							C804.8,437.5,804.6,435.7,804.4,433.9"/>
						<path style="fill:#4A8BCC;" d="M805,439.3l35.5-20.6c0.2,1.8,0.3,3.6,0.4,5.4l-35.5,20.6C805.3,442.9,805.2,441.1,805,439.3"
							/>
						<path style="fill:#4A8BCC;" d="M805.4,444.7l35.5-20.6c0.1,1.8,0.2,3.6,0.3,5.4l-35.5,20.6
							C805.6,448.4,805.5,446.5,805.4,444.7"/>
						<path style="fill:#4A8BCC;" d="M805.7,450.1l35.5-20.6c0.1,1.7,0.1,3.4,0.1,5.1l-35.5,20.6
							C805.7,453.5,805.7,451.8,805.7,450.1"/>
					</g>
				</g>
			</g>
		</g>
		<g>
			<g>
				<path style="fill:#FFFFFF;" d="M693,262.3c62.4,36,112.9,121.3,112.7,192.9l0,1.4l-0.4,143.7l-31.4-18.1l0.4-143.7l0-1.4
					c0.1-51.8-36.4-112.8-81.4-138.8c-45-26-81.8-7.3-82,44.4l0,1.4l-0.4,143.7l-31.4-18.1l0.4-143.7l0-1.4
					C579.8,253,630.7,226.3,693,262.3z"/>
			</g>
		</g>
		<g>
			<path style="fill:none;stroke:#08293F;stroke-width:3.8963;stroke-miterlimit:10;" d="M841.1,430.1c0-0.2,0-0.4,0-0.6
				c0-0.2,0-0.4,0-0.5c-0.1-1.6-0.1-3.2-0.2-4.8c0,0,0-0.1,0-0.1c0-0.1,0-0.3,0-0.4c-0.1-1.5-0.2-2.9-0.4-4.4c0-0.2,0-0.4,0-0.6
				c0-0.1,0-0.3,0-0.4c-0.2-1.6-0.3-3.2-0.5-4.7c0-0.1,0-0.2,0-0.3c0-0.2-0.1-0.4-0.1-0.6c-0.2-1.5-0.4-3-0.6-4.5
				c0-0.2,0-0.3-0.1-0.5c0-0.1,0-0.1,0-0.2c-0.3-1.6-0.5-3.3-0.8-4.9c0-0.2-0.1-0.3-0.1-0.5c0-0.2-0.1-0.4-0.1-0.6
				c-0.3-1.7-0.7-3.4-1-5c0,0,0-0.1,0-0.1c0-0.1-0.1-0.3-0.1-0.4c-0.4-1.6-0.7-3.2-1.1-4.8c0-0.2-0.1-0.4-0.1-0.6
				c0-0.1-0.1-0.2-0.1-0.3c-0.4-1.7-0.9-3.4-1.3-5.1c0-0.2-0.1-0.3-0.1-0.5c-0.1-0.2-0.1-0.4-0.2-0.6c-0.5-1.7-1-3.4-1.5-5.1
				c0,0,0-0.1,0-0.1c0-0.1-0.1-0.2-0.1-0.3c-0.5-1.6-1-3.1-1.5-4.7c-0.1-0.2-0.1-0.4-0.2-0.6c0-0.1-0.1-0.2-0.1-0.4
				c-0.5-1.6-1.1-3.2-1.7-4.9c0-0.1-0.1-0.2-0.1-0.4c-0.1-0.2-0.2-0.4-0.2-0.6c-0.5-1.4-1-2.8-1.6-4.2c-0.1-0.2-0.1-0.4-0.2-0.5
				c0-0.1-0.1-0.1-0.1-0.2c-0.6-1.6-1.2-3.1-1.9-4.6c-0.1-0.2-0.1-0.3-0.2-0.5c-0.1-0.2-0.2-0.4-0.3-0.6c-0.6-1.4-1.2-2.8-1.8-4.3
				c-0.1-0.1-0.1-0.3-0.2-0.4c0,0,0-0.1-0.1-0.1c-0.7-1.5-1.4-3.1-2.1-4.6c-0.1-0.2-0.2-0.3-0.2-0.5c-0.1-0.2-0.2-0.3-0.2-0.5
				c-0.8-1.7-1.6-3.5-2.5-5.2c0-0.1-0.1-0.1-0.1-0.2c-0.1-0.1-0.1-0.3-0.2-0.4c-1-1.9-2-3.8-3-5.8c0,0,0,0,0-0.1
				c-0.1-0.1-0.1-0.2-0.2-0.3c-0.7-1.3-1.4-2.5-2.1-3.8c-0.2-0.4-0.4-0.8-0.7-1.2c-0.6-1.1-1.3-2.2-1.9-3.3
				c-0.1-0.2-0.2-0.4-0.3-0.6c0,0-0.1-0.1-0.1-0.1c-1.4-2.3-2.8-4.7-4.2-7c0-0.1-0.1-0.1-0.1-0.2c-1.4-2.2-2.8-4.5-4.3-6.6
				c-0.1-0.1-0.1-0.2-0.2-0.2c-0.1-0.2-0.2-0.4-0.4-0.5c-0.9-1.4-1.9-2.8-2.8-4.1c-0.1-0.2-0.2-0.3-0.3-0.5c-1-1.5-2.1-2.9-3.1-4.3
				c-0.1-0.2-0.2-0.3-0.3-0.5c-0.1-0.1-0.2-0.2-0.3-0.3c-1.5-2-3-3.9-4.5-5.9c-0.1-0.1-0.2-0.2-0.3-0.4c-0.1-0.1-0.1-0.2-0.2-0.3
				c-1.2-1.6-2.5-3.1-3.7-4.6c-0.1-0.1-0.2-0.3-0.3-0.4c-0.1-0.1-0.2-0.3-0.3-0.4c-1.3-1.5-2.5-3-3.8-4.5c-0.1-0.1-0.2-0.2-0.3-0.3
				c-0.1-0.1-0.3-0.3-0.4-0.4c-1.3-1.5-2.6-2.9-4-4.4c0,0-0.1-0.1-0.1-0.1c-0.1-0.1-0.2-0.2-0.3-0.3c-1.4-1.5-2.9-3.1-4.3-4.5
				c0,0,0,0-0.1-0.1c0,0,0,0,0,0c-1.5-1.5-3-3-4.6-4.5c-0.1-0.1-0.2-0.2-0.3-0.3c0,0-0.1-0.1-0.1-0.1c-1.5-1.4-3-2.9-4.6-4.3
				c-0.1-0.1-0.2-0.2-0.3-0.3c-0.1-0.1-0.1-0.1-0.2-0.2c-1.5-1.4-3-2.7-4.6-4c-0.1-0.1-0.3-0.2-0.4-0.3c-0.1-0.1-0.2-0.1-0.3-0.2
				c-1.5-1.3-3-2.5-4.5-3.7c-0.1-0.1-0.3-0.2-0.4-0.3c-0.1-0.1-0.2-0.2-0.4-0.3c-1.5-1.2-3-2.3-4.4-3.4c-0.1-0.1-0.2-0.2-0.3-0.2
				c-0.1-0.1-0.3-0.2-0.4-0.3c-1.5-1.1-3-2.1-4.5-3.2c-0.1,0-0.1-0.1-0.2-0.1c-0.1-0.1-0.3-0.2-0.4-0.2c-1.4-1-2.9-1.9-4.3-2.9
				c-0.1-0.1-0.2-0.1-0.3-0.2c0,0-0.1,0-0.1-0.1c-1.5-0.9-2.9-1.8-4.4-2.7c-0.2-0.1-0.3-0.2-0.5-0.3c-0.4-0.2-0.8-0.4-1.1-0.7
				c-1.1-0.7-2.3-1.3-3.4-1.9c-0.1-0.1-0.2-0.1-0.3-0.2c-0.6-0.3-1.2-0.6-1.8-0.9c-0.2-0.1-0.3-0.2-0.5-0.3
				c-0.8-0.4-1.7-0.9-2.5-1.3c0,0-0.1,0-0.1-0.1c-1.4-0.7-2.8-1.3-4.1-2c-0.1-0.1-0.3-0.1-0.4-0.2c-0.2-0.1-0.3-0.1-0.5-0.2
				c-1.4-0.6-2.7-1.2-4.1-1.7c0,0-0.1,0-0.1,0c-0.8-0.3-1.6-0.6-2.5-1c-0.2-0.1-0.4-0.1-0.5-0.2c-0.6-0.2-1.1-0.4-1.7-0.6
				c-0.1,0-0.3-0.1-0.4-0.1c-0.3-0.1-0.6-0.2-0.9-0.3c-0.6-0.2-1.1-0.4-1.7-0.6c-0.3-0.1-0.6-0.2-1-0.3c-0.2-0.1-0.5-0.1-0.7-0.2
				c-0.3-0.1-0.6-0.2-1-0.3c-0.3-0.1-0.7-0.2-1-0.3c-0.6-0.2-1.1-0.3-1.7-0.5c-0.3-0.1-0.6-0.2-0.9-0.2c-0.1,0-0.1,0-0.2-0.1
				c-0.7-0.2-1.3-0.3-1.9-0.5c-0.1,0-0.3-0.1-0.4-0.1c-0.8-0.2-1.6-0.3-2.4-0.5c0,0-0.1,0-0.1,0c-0.3-0.1-0.6-0.1-0.9-0.2
				c-0.5-0.1-1.1-0.2-1.6-0.3c-0.4-0.1-0.7-0.1-1.1-0.2c-0.4-0.1-0.8-0.1-1.2-0.2c-0.1,0-0.2,0-0.3,0c-0.4-0.1-0.9-0.1-1.3-0.2
				c-0.4-0.1-0.9-0.1-1.3-0.1c-0.4,0-0.8-0.1-1.3-0.1c-0.3,0-0.7-0.1-1-0.1c-0.1,0-0.2,0-0.3,0c-0.5,0-1-0.1-1.5-0.1
				c-0.4,0-0.8,0-1.1-0.1c-0.5,0-1,0-1.5,0c-0.3,0-0.6,0-0.9,0c-0.1,0-0.1,0-0.2,0c-0.9,0-1.8,0-2.7,0.1c-0.2,0-0.3,0-0.5,0
				c-0.7,0-1.5,0.1-2.2,0.2c-0.1,0-0.2,0-0.3,0c-0.2,0-0.3,0-0.5,0.1c-0.8,0.1-1.5,0.2-2.3,0.3c-0.3,0-0.5,0.1-0.8,0.1
				c-1,0.1-1.9,0.3-2.9,0.5c0,0,0,0,0,0c-0.7,0.1-1.4,0.3-2.1,0.5c-0.2,0-0.4,0.1-0.6,0.2c-0.5,0.1-1,0.3-1.5,0.4
				c-0.3,0.1-0.5,0.2-0.8,0.2c-0.4,0.1-0.9,0.3-1.3,0.4c-0.3,0.1-0.5,0.2-0.8,0.3c-0.2,0.1-0.5,0.1-0.7,0.2
				c-0.1,0.1-0.3,0.1-0.4,0.2c-0.4,0.2-0.9,0.3-1.3,0.5c-0.3,0.1-0.6,0.2-0.9,0.4c-0.4,0.2-0.9,0.4-1.3,0.6
				c-0.3,0.1-0.6,0.2-0.8,0.4c-0.5,0.2-1,0.5-1.4,0.7c-0.2,0.1-0.5,0.2-0.7,0.3c-0.7,0.4-1.4,0.7-2.1,1.1l-35.5,20.6
				c0.2-0.1,0.4-0.2,0.5-0.3c-20.1,11.3-32.5,35.7-32.6,71.1l0,1.4l-0.4,143.7l31.4,18.1l35.5-20.6l0.4-143.7l0-1.4
				c0-1.5,0-3,0.1-4.4c0-0.4,0.1-0.8,0.1-1.2c0.1-1,0.1-2,0.2-2.9c0-0.6,0.1-1.1,0.2-1.7c0.1-0.8,0.2-1.6,0.3-2.4
				c0.1-0.6,0.2-1.2,0.3-1.7c0.1-0.7,0.2-1.4,0.4-2.2c0.1-0.6,0.2-1.3,0.4-1.9c0.1-0.6,0.3-1.3,0.4-1.9c0.2-0.7,0.4-1.4,0.6-2.2
				c0.2-0.7,0.4-1.4,0.6-2.1c0.1-0.2,0.1-0.4,0.2-0.6c0.3-1,0.7-2,1-3c0.1-0.2,0.2-0.5,0.3-0.7c0.3-0.8,0.7-1.6,1-2.4
				c0.1-0.2,0.2-0.4,0.3-0.6c0.5-1,0.9-1.9,1.4-2.9c0,0,0-0.1,0-0.1c0.1-0.2,0.3-0.4,0.4-0.7c11.4-0.1,24.5,3.7,38.3,11.6
				c45,26,81.6,87,81.4,138.8l0,1.4l-0.4,143.7l31.4,18.1l35.5-20.6l0.4-143.7l0-1.4C841.2,433.1,841.2,431.6,841.1,430.1z"/>
			<g>
				<path style="fill:none;stroke:#08293F;stroke-width:3.8963;stroke-miterlimit:10;" d="M805.3,600.3l-31.4-18.1l0.4-143.7l0-1.4
					c0.1-51.8-36.4-112.8-81.4-138.8c-45-26-81.8-7.3-82,44.4l0,1.4l-0.4,143.7"/>
				<path style="fill:none;stroke:#08293F;stroke-width:3.8963;stroke-miterlimit:10;" d="M610.6,487.9l-31.4-18.1l0.4-143.7l0-1.4
					c0.2-71.6,51.1-98.4,113.4-62.4c62.4,36,112.9,121.3,112.7,192.9l0,1.4l-0.4,143.7"/>
			</g>
		</g>
		<g>
			
				<path style="fill:none;stroke:#08293F;stroke-width:3.8963;stroke-linecap:round;stroke-linejoin:round;stroke-miterlimit:10;" d="
				M818.7,575.5c0-30.7,0-54.4,0-54.4"/>
			
				<path style="fill:none;stroke:#08293F;stroke-width:3.8963;stroke-linecap:round;stroke-linejoin:round;stroke-miterlimit:10;" d="
				M818.7,506.4c0-30.7,0-25.1,0-25.1"/>
			
				<path style="fill:none;stroke:#08293F;stroke-width:3.8963;stroke-linecap:round;stroke-linejoin:round;stroke-miterlimit:10;" d="
				M831.9,546.9c0-30.7,0-43.4,0-43.4"/>
			
				<path style="fill:none;stroke:#08293F;stroke-width:3.8963;stroke-linecap:round;stroke-linejoin:round;stroke-miterlimit:10;" d="
				M831.9,462.8c0-42.1,2.7-52.5-13.2-93.1"/>
			
				<path style="fill:none;stroke:#08293F;stroke-width:3.8963;stroke-linecap:round;stroke-linejoin:round;stroke-miterlimit:10;" d="
				M804,372.1c-13.6-32.4-28.5-53.5-28.5-53.5"/>
			
				<path style="fill:none;stroke:#08293F;stroke-width:3.8963;stroke-linecap:round;stroke-linejoin:round;stroke-miterlimit:10;" d="
				M808.2,382.5c3.5,8.4,6.2,18.8,6.2,18.8"/>
			
				<line style="fill:none;stroke:#08293F;stroke-width:3.8963;stroke-linecap:round;stroke-linejoin:round;stroke-miterlimit:10;" x1="623.5" y1="468.7" x2="623.5" y2="372.1"/>
			
				<line style="fill:none;stroke:#08293F;stroke-width:3.8963;stroke-linecap:round;stroke-linejoin:round;stroke-miterlimit:10;" x1="623.5" y1="355.8" x2="623.5" y2="344.2"/>
			
				<line style="fill:none;stroke:#08293F;stroke-width:3.8963;stroke-linecap:round;stroke-linejoin:round;stroke-miterlimit:10;" x1="635.2" y1="461.4" x2="635.2" y2="415.2"/>
			
				<line style="fill:none;stroke:#08293F;stroke-width:3.8963;stroke-linecap:round;stroke-linejoin:round;stroke-miterlimit:10;" x1="635.2" y1="403.2" x2="635.2" y2="362"/>
			
				<path style="fill:none;stroke:#08293F;stroke-width:3.8963;stroke-linecap:round;stroke-linejoin:round;stroke-miterlimit:10;" d="
				M688,241c25.5,8.2,40.5,21.8,59.8,41.6"/>
			
				<path style="fill:none;stroke:#08293F;stroke-width:3.8963;stroke-linecap:round;stroke-linejoin:round;stroke-miterlimit:10;" d="
				M649.8,233.1c12.3,1.2,5.4,0.3,14.6,2.6"/>
		</g>
	</g>
	<g>
		<path style="fill:#1B4B7A;" d="M341.6,610.3l-93.9,41.8l0,0l104.1-39.1h0c2.6-1.8,0.7-5.9-2.4-5L341.6,610.3z"/>
		<g>
			<g>
				<path style="fill:#FFFFFF;" d="M348.7,611.4c-2.4,0-4.4-2-4.4-4.4v-63.7c0-2.4,2-4.4,4.4-4.4c2.4,0,4.4,2,4.4,4.4V607
					C353.1,609.4,351.1,611.4,348.7,611.4z"/>
			</g>
			<g>
				<path style="fill:#FFFFFF;" d="M386.4,499.1c0,32.8-16.9,50.8-37.7,50.8s-37.7-18-37.7-50.8c0-32.8,27.3-91.7,37.7-91.7
					S386.4,466.3,386.4,499.1z"/>
			</g>
			<path style="fill:#4A8BCC;" d="M338.6,548.3c3.2,1,6.6,1.5,10.1,1.5c20.8,0,37.7-18,37.7-50.8c0-29.5-22.1-80.3-34.2-90.1
				c-1.2-0.6-2.4-1.1-3.6-1.7C372.8,454.1,364.1,553.9,338.6,548.3z"/>
		</g>
		<g>
			<g>
				<path style="fill:none;stroke:#08293F;stroke-width:3.8963;stroke-miterlimit:10;" d="M386.4,499.1c0,32.8-16.9,50.8-37.7,50.8
					s-37.7-18-37.7-50.8c0-32.8,27.3-91.7,37.7-91.7S386.4,466.3,386.4,499.1z"/>
			</g>
			<g>
				<path style="fill:none;stroke:#08293F;stroke-width:3.8963;stroke-miterlimit:10;" d="M353.1,549.8V607c0,2.4-2,4.4-4.4,4.4
					c-2.4,0-4.4-2-4.4-4.4v-57.2"/>
			</g>
		</g>
		
			<path style="fill:none;stroke:#08293F;stroke-width:3.8963;stroke-linecap:round;stroke-linejoin:round;stroke-miterlimit:10;" d="
			M348.7,538.9c20.8,0,28-33,26.1-52.1"/>
	</g>
	<g>
		<path style="fill:#08293F;" d="M494.1,521l-93.9,41.8l0,0l104.1-39.1h0c2.6-1.8,0.7-5.9-2.4-5L494.1,521z"/>
		<g>
			<g>
				<path style="fill:#FFFFFF;" d="M500.4,523c-2.4,0-4.4-2-4.4-4.4v-63.7c0-2.4,2-4.4,4.4-4.4s4.4,2,4.4,4.4v63.7
					C504.8,521.1,502.9,523,500.4,523z"/>
			</g>
			<g>
				<path style="fill:#FFFFFF;" d="M538.2,410.7c0,32.8-16.9,50.8-37.7,50.8s-37.7-18-37.7-50.8S490,319,500.4,319
					S538.2,377.9,538.2,410.7z"/>
			</g>
			<path style="fill:#4A8BCC;" d="M490.3,459.9c3.2,1,6.6,1.5,10.1,1.5c20.8,0,37.7-18,37.7-50.8c0-29.5-22.1-80.3-34.2-90.1
				c-1.2-0.6-2.4-1.1-3.6-1.7C524.6,365.7,515.8,465.5,490.3,459.9z"/>
		</g>
		<g>
			<g>
				<path style="fill:none;stroke:#08293F;stroke-width:3.8963;stroke-miterlimit:10;" d="M538.2,410.7c0,32.8-16.9,50.8-37.7,50.8
					s-37.7-18-37.7-50.8S490,319,500.4,319S538.2,377.9,538.2,410.7z"/>
			</g>
			<g>
				<path style="fill:none;stroke:#08293F;stroke-width:3.8963;stroke-miterlimit:10;" d="M504.8,461.4v57.2c0,2.4-2,4.4-4.4,4.4
					s-4.4-2-4.4-4.4v-57.2"/>
			</g>
		</g>
		
			<path style="fill:none;stroke:#08293F;stroke-width:3.8963;stroke-linecap:round;stroke-linejoin:round;stroke-miterlimit:10;" d="
			M500.4,450.5c29.9,0,29.8-40,27.9-56.3"/>
	</g>
	<g>
		<path style="fill:#1B4B7A;" d="M411.4,690.6l-93.9,41.8l0,0l104.1-39.1h0c2.6-1.8,0.7-5.9-2.4-5L411.4,690.6z"/>
		<path style="fill:#1B4B7A;" d="M469.7,694.1L412,724l64.7-27.7l0,0c2.1-2.4-0.8-6-3.6-4.3L469.7,694.1z"/>
		<g>
			<g>
				<g>
					<g>
						<path style="fill:#2461AB;" d="M484.1,678.3c2.3,1,2.5,3,0.5,4.5l-11.3,8.4c-2,1.5-5.5,1.9-7.7,0.9l0,0c-2.3-1-2.5-3-0.5-4.5
							l11.3-8.4C478.4,677.8,481.9,677.3,484.1,678.3L484.1,678.3z"/>
						<path style="fill:#2461AB;" d="M462.1,676l11.8,1.3c6.7-2.6,11.6-1,12,2.9l-22.2,9.7L462.1,676z"/>
					</g>
					<g>
						<path style="fill:#2461AB;" d="M434.6,681.2c2,1.5,1.7,3.5-0.6,4.5l-13,5.4c-2.3,1-5.7,0.5-7.7-1l0,0c-2-1.5-1.7-3.5,0.6-4.5
							l13-5.4C429.2,679.2,432.7,679.7,434.6,681.2L434.6,681.2z"/>
						<path style="fill:#2461AB;" d="M413.8,673.6l11.2,4.1c7.1-0.9,11.5,1.8,11,5.8l-23.9,4L413.8,673.6z"/>
					</g>
					<polygon style="fill:#FFFFFF;" points="423.8,636.9 442.9,638.1 442.9,637.6 444.3,615.7 446.1,587.8 427,586.6 425.6,609.2 
						424.1,632.8 					"/>
					<g>
						<path style="fill:#FFFFFF;" d="M429,677.5c3.1,2.9,2.3,6.3-1.8,7.5c-4.1,1.2-9.9-0.2-13-3.1c-3.1-2.9-2.3-6.3,1.8-7.5
							C420.1,673.2,425.9,674.6,429,677.5z"/>
						<path style="fill:#FFFFFF;" d="M412.4,677.5c2.4-13.8,10.1-40.2,11.3-41.5c1.3-1.6,3.8-6.8,5.7-7.6c2.6-1.1,5.7-2,8.3-1
							c3.2,1.3,5,7.4,4.9,10.9c0,3.5-11,41.8-11.9,43.7c-1,1.8-3.2-1.5-5.3-1.3L412.4,677.5z"/>
					</g>
					<polygon style="fill:#FFFFFF;" points="469.9,630.8 452.4,640.7 437.9,587.4 456.3,582.3 					"/>
					<g>
						<g>
							<path style="fill:#FFFFFF;" d="M470.6,600.7c0.3,0.4,0.7,0.9,1,1.4c0.3,0.6,1.7,4.3,2,5c0.4,1.1,0.5,2.9,0.7,6.4
								c0,0.4-0.1,0.9-0.5,1.2c-0.3,0.3-1,0.2-1.1-0.2c0.3,0.9,0,1.9-0.7,2.5c-0.4,0.3-1.1,0.4-1.3-0.1c0.3,0.6-0.1,1.3-0.7,1.5
								c-0.6,0.2-1.3-0.2-1.5-0.8c0.2,0.5-0.3,1.1-0.9,1.1c-0.6,0-1.1-0.4-1.3-0.9c-0.3-0.5-0.3-1.1-0.4-1.6c-0.3-2.6,0-4.3-0.6-5.4
								c-0.3-0.5-2-3.8-2.4-4.2c-1-1.3-0.7-0.8-1.5-2.2c-2.8-5.1,2.8-11.4,7.8-5.7C469.1,598.7,469.5,599.3,470.6,600.7z"/>
							<path style="fill:#FFFFFF;" d="M475.3,605.9c-0.3,0.6-1.1,0.8-1.8,0.7c-0.7-0.2-1.2-0.6-1.8-1c-0.5-0.4-1.1-0.7-1.6-1
								c-0.8-0.4-1.6-0.9-2.2-1.5c-0.6-0.6-1-1.5-0.8-2.4c0.2-0.6,0.7-1.2,1.2-1.5c0.3-0.2,0.6-0.3,0.9-0.1c0.1,0.1,0.2,0.2,0.3,0.3
								c0.9,1.4,2,2.8,3.4,3.7c0.6,0.3,1.3,0.6,1.8,1C475.2,604.5,475.6,605.3,475.3,605.9z"/>
						</g>
					</g>
					<path style="fill:#FFFFFF;" d="M476.3,673.6c4.2,0.8,5.3,4.1,2.5,7.3c-2.8,3.2-8.4,5.2-12.6,4.4c-4.2-0.8-5.3-4.1-2.5-7.3
						C466.5,674.8,472.1,672.8,476.3,673.6z"/>
					<path style="fill:#FFFFFF;" d="M462.3,682.5c-4.2-13.4-10.8-44-10.4-45.7c0.4-2,1.3-4.9,2.6-6.5c1.8-2.2,4.1-4.4,7-4.7
						c3.4-0.4,6.8,1.4,8.4,4.5c1.6,3.1,10.4,44.2,10.3,46.2s0,2-1.7,3.1L462.3,682.5z"/>
					<g>
						<g>
							<g>
								<g>
									<path style="fill:#FFFFFF;" d="M438.1,593.1c1.1-2,2.6-2.6,4.7-2.8c1.8-0.2,3.5,1.1,4.8,2.4c0.7,0.7,1.4,1.5,2.3,1.9
										c1.1,0.5,3,0.3,3.7,1.3c0.7,1.1,0,2.2-1.3,2.2c-2.6,0-3.3-0.7-4-0.8c-1-0.2-2.2,0.4-3.2,0.3c-1.2-0.2-2.6-1-3.4-1.9
										L438.1,593.1z"/>
									<path style="fill:#FFFFFF;" d="M446.3,606.5c0.9,1.6,2.5,2.4,3.3,1.4c0.8,0.9,2.9,0.9,2.9-0.7c1.2,0.4,1.7-1.8,1.2-3
										c-0.7-1.8-0.7-2-1-2.5c-0.5-1.3-1.4-2.4-2-3.2c-0.8-1.1-1.7-1.9-2.8-2.6c-2.9-1.8-5.6-4-9-3.8c-1,1.1-1.8,2.4-1.4,5.1
										c0.3,2,1.5,3.1,3,4.3c1.6,1.3,2,1.8,2.9,3.6C444.7,607.4,446.4,607.2,446.3,606.5z"/>
								</g>
							</g>
							<path style="fill:#4A8BCC;" d="M435.2,594.2c1.3,0.4,2.7,0.5,4,0.2c1.6-0.4,2.9-1.3,3.9-2.5c0.4-0.6,0.8-1.2,1-1.8
								c0.5-1.3,0.6-2.8,0.3-4.3l-6.6-26.6c-0.5-2.2-2-3.9-3.9-4.7c-0.2-0.1-0.4-0.2-0.7-0.3c-0.4-0.1-0.8-0.2-1.3-0.3
								c-0.2,0-0.4-0.1-0.6-0.1c-0.2,0-0.3,0-0.5,0c-0.5,0-1.1,0.1-1.6,0.2c-3.8,1-6.1,4.8-5.2,8.6l2.7,10.6l1.1,4.3l2.9,11.6
								C431.2,591.7,433,593.5,435.2,594.2z"/>
						</g>
						<path style="fill:#4A8BCC;" d="M438,562.3c-0.2,3.9-3.6,6.9-7.5,6.7l0,0c-3.9-0.2-6.9-5-6.7-8.9l2-24.4
							c0.2-3.9,3.6-6.9,7.5-6.7l0,0c3.9,0.2,6.9,3.6,6.7,7.5L438,562.3z"/>
					</g>
					<path style="fill:#4A8BCC;" d="M423.7,589.2c0.1,0.5,0.4,1.1,0.7,1.6c4.4,7.5,25.8,14.5,35.5,6.4c0.1,0,0.1-0.1,0.2-0.2
						c1.6-0.9,2.5-2.1,2.7-3.3c0,0,0-0.1,0-0.1c0-0.1,0-0.1,0-0.2c0-0.1,0-0.1,0-0.2l0-1l0.1-3.7l0.1-2.3l1.6-43.1
						c-1.6-4.4-5-7.5-16.2-13.2c-7.2-3.7-10.5-1.1-15.1-0.9c-8.4,0.4-8.1,11.9-7.9,9.8c-0.1,0.4-0.3,3.8-0.5,8.6
						c0,0.5,0,1.1-0.1,1.7c0,0.5,0,1.1-0.1,1.7c-0.3,8.3-0.7,19.1-1,26.6c0,0.1,0,0.3,0,0.4c0,0,0,0,0,0l-0.1,3.8
						c-0.1,3-0.2,4.8-0.2,4.8c0,0,0,0.1,0,0.1l0,1.5C423.6,588.3,423.6,588.7,423.7,589.2z"/>
					<path style="fill:#2461AB;" d="M456.8,598.3c0,0-7.1,2.6-12.1,2.6c-2.8-5.9-1.7-26.8-1.2-29.9c2-13,4.1-23.9,7.3-24.5
						c5.7-1,3.6,5,3.6,5l-1.8,21.7L456.8,598.3z"/>
					<g>
						<path style="fill:#FFFFFF;" d="M440.8,513.6c0.1,2.1,0.2,4.2,0.7,6.3c0.5,2.1,1.3,4.1,2.8,5.6c1.6,1.7,3.9,2.8,6.3,2.9
							c0.7,0,1.5,0,2.2-0.1c0.7-0.1,1.5-0.4,2.1-0.8c0.9-0.7,1.5-1.8,1.8-2.9c0,0,0,0,0,0c0.1-0.2,0.2-0.5,0.2-0.7
							c1.7-5.7,1.9-11.8,1.5-17.7c-0.1-0.9-0.1-1.8-0.4-2.6c-0.8-2.5-3.4-4.1-6-4.4c-2.6-0.3-5.2,0.5-7.6,1.6
							c-0.6,0.3-1.3,0.6-1.8,1.1c-0.5,0.5-0.8,1.1-1.3,1.6C440.8,504,440.7,510.4,440.8,513.6z"/>
						<path style="fill:#FFFFFF;" d="M454.8,528.8C454.8,528.7,454.8,528.7,454.8,528.8L454.8,528.8z"/>
						<path style="fill:#4A8BCC;" d="M450.1,523.4c0,1.3,0,2.5,0.1,3.8c0,0.3,0,0.6,0.1,0.8c0.1,0.1,0.2,0.3,0.3,0.3
							c0.7,0,1.5,0,2.2-0.1c0.7-0.1,1.5-0.4,2.1-0.8c0.9-0.7,1.5-1.8,1.8-2.9c0,0,0,0,0,0c-2.4,2.4-4,0.3-4.6-6.4
							C451.7,521.3,450.1,520.3,450.1,523.4z"/>
						<rect x="437.4" y="512.5" style="fill:#FFFFFF;" width="14.7" height="19.1"/>
						<ellipse style="fill:#FFFFFF;" cx="444.7" cy="531" rx="7.4" ry="4.3"/>
						<path style="fill:#08293F;" d="M455.4,508c-2.2,1.3-3.1,3.6-3.4,6.1c-0.2,2.5,0.1,5-0.1,7.5c-0.2,2.5-1.2,5.1-3.4,6.4
							c-1.5,0.9-3.4,1-5.1,1c-2.3,0-5.3-0.2-6.2-2.3c-11.6-28.2,6.2-30.1,8.3-30.2c7.4-0.6,16.4,4,12.9,9.8
							C458,507.2,456.2,507.6,455.4,508z"/>
						<path style="fill:#FFFFFF;" d="M451.5,512.5c0.8,0,1.4,0.8,1.6,1.5c0.3,0.9,0.3,1.8,0.3,2.8c0,1.2-0.1,2.4-0.6,3.4
							c-0.2,0.3-0.4,0.6-0.7,0.7c-0.5,0.2-1.1-0.1-1.4-0.4s-0.4-0.9-0.5-1.3c-0.3-1.4-0.4-2.7-0.4-4.1c0-0.5,0.1-1.1,0.3-1.6
							C450.4,512.9,450.9,512.5,451.5,512.5z"/>
					</g>
					<path style="fill:#FFFFFF;" d="M450.8,580.8l0.1,0.3l6.3,16.5l0.9,2.2c1,2.7,2.2,3.9,4.2,3.6c0,0,8.2-1.2,6.1-6.2l-7.5-19.7
						l-0.2-0.4l0,0c-0.7-1.9-2.5-3.2-4.4-3.4c-0.8-0.1-1.6,0-2.4,0.3C451.2,575,449.8,578.1,450.8,580.8z"/>
					<path style="fill:#4A8BCC;" d="M451,545l-0.5,4.3l-2.8,22.9c-0.1,1,0,1.9,0.2,2.8c0.6,2.3,2.4,4.2,4.8,4.9
						c0.4,0.1,0.8,0.2,1.3,0.3c2.1,0.3,4.1-0.4,5.5-1.7c1.3-1.1,2.2-2.7,2.4-4.5l0.1-1.1l0.2-1.5l2.2-17.9l0.8-6.7
						c0.4-3.5-1.7-6.7-5-7.7c-0.4-0.1-0.8-0.2-1.3-0.3C455,538.4,451.5,541.1,451,545z"/>
				</g>
			</g>
			<g>
				
					<path style="fill:none;stroke:#08293F;stroke-width:3.8963;stroke-linecap:round;stroke-linejoin:round;stroke-miterlimit:10;" d="
					M486,680.3L486,680.3c-0.3-2.6-2.5-4.2-5.8-4.2c-0.5-4.3-8.8-42.9-10.3-45.9c0-0.1-0.1-0.2-0.2-0.3l-3.3-11.7
					c0.3,0.4,0.7,0.6,1.2,0.6c0.6,0,1.1-0.6,0.9-1.1c0.3,0.6,0.9,0.9,1.5,0.8c0.6-0.2,1-0.9,0.7-1.5c0.2,0.5,0.9,0.4,1.3,0.1
					c0.7-0.6,1-1.6,0.7-2.5c0.1,0.4,0.8,0.5,1.1,0.2c0.3-0.3,0.5-0.8,0.5-1.2c-0.2-3.5-0.3-5.3-0.7-6.4c0-0.1-0.1-0.3-0.2-0.6
					c0.1,0,0.1,0,0.2,0.1c0.7,0.2,1.5-0.1,1.8-0.7c0.3-0.6,0-1.4-0.6-1.9c-0.5-0.5-1.2-0.7-1.8-1c-0.7-0.4-1.2-0.9-1.7-1.4
					c-0.2-0.3-0.4-0.6-0.6-0.8c-1.1-1.4-1.5-2-1.5-2c-0.1-0.1-0.2-0.3-0.4-0.4c0-0.4-0.1-0.7-0.3-1.1l-5.2-13.6l1.1-30.2l0.8-6.6
					c0.1-1.2,0-2.4-0.4-3.4l0-0.3c-1.5-3.9-4.3-6.8-12.7-11.4c0,0,0-0.1,0-0.1h0.1V531c0,0,0,0,0,0v-2.7c0.2,0,0.5,0,0.7-0.1
					c0.7-0.1,1.5-0.4,2.1-0.8c0.9-0.7,1.5-1.8,1.8-2.9c0,0,0,0,0,0c0.1-0.2,0.2-0.5,0.2-0.7c1.6-5.7,1.9-11.6,1.6-17.5c0,0,0,0,0,0
					c3.5-5.8-5.5-10.4-12.9-9.8c-2.1,0.2-19.9,2.1-8.3,30.2c0,0.1,0.1,0.1,0.1,0.1v1.5c-1.3,0.2-2.5,0.5-3.9,0.6
					c-3.9-0.2-7.3,2.8-7.5,6.7l0,0.4c-0.4,1.7-0.4,3.1-0.4,2.9c-0.1,0.7-0.2,2.6-0.3,5.3l-1.3,15c-0.3,1.1-0.3,2.3,0,3.4l0.5,1.8
					c-0.2,4.6-0.3,9.1-0.4,12.8c0,0.1,0,0.3,0,0.4c0,0,0,0,0,0l-0.1,3.8c-0.1,3-0.2,4.8-0.2,4.8c0,0,0,0.1,0,0.1l0,1.5
					c0,0.4,0,0.8,0.1,1.3c0.1,0.5,0.4,1.1,0.7,1.6c0.5,0.9,1.3,1.7,2.2,2.6l-1,15.8l-1.5,23.6l-0.2,3c-0.1,0.1-0.1,0.2-0.2,0.2
					c-1.1,1.4-8.8,27.7-11.3,41.5c-0.2,0.9,0,1.9,0.6,2.9l-0.9,7.1l0,0c-0.2,0.9,0.2,1.8,1.3,2.6c2,1.5,5.4,1.9,7.7,1l13-5.4
					c1.2-0.5,1.8-1.3,1.9-2.1l0,0c0.3-2.4-1.2-4.3-4-5.3c3.1-10.1,10.6-37.1,10.7-40c0-0.1,0-0.1,0-0.2l0.2,0l0-0.4l1.4-22l0.2-3.6
					l7.8,28.7l0,0c1.6,9,6.6,31,9.9,41.8c0.1,0.4,0.4,0.8,0.7,1.2l0.7,6.2l0,0c0,0.9,0.6,1.7,1.9,2.2c2.3,1,5.7,0.6,7.7-0.9
					l11.3-8.4C485.7,682,486.1,681.1,486,680.3z M463.5,607.8c0.6,1.1,1.5,2.7,1.7,3.1c0.6,1.1,0.4,2.6,0.6,5.1L463.5,607.8z"/>
				
					<path style="fill:none;stroke:#08293F;stroke-width:3.8963;stroke-linecap:round;stroke-linejoin:round;stroke-miterlimit:10;" d="
					M436,528.6c2,7.5,11.3,8.8,16.1,3"/>
				
					<path style="fill:none;stroke:#08293F;stroke-width:3.8963;stroke-linecap:round;stroke-linejoin:round;stroke-miterlimit:10;" d="
					M460.7,577c1.3,5.9,4,10.5,4,10.5"/>
				
					<path style="fill:none;stroke:#08293F;stroke-width:3.8963;stroke-linecap:round;stroke-linejoin:round;stroke-miterlimit:10;" d="
					M463,576c-2.8,0-10.5,7.5-14.9-0.2c0,0,0-25.9,2.8-30.8"/>
				
					<path style="fill:none;stroke:#08293F;stroke-width:3.8963;stroke-linecap:round;stroke-linejoin:round;stroke-miterlimit:10;" d="
					M426.6,593.4c7.4,5.6,17,9.9,31.2,5.5"/>
				
					<path style="fill:none;stroke:#08293F;stroke-width:3.8963;stroke-linecap:round;stroke-linejoin:round;stroke-miterlimit:10;" d="
					M450.5,578.5c3.6,10.8,12.3,28.2,12.3,28.2"/>
				
					<path style="fill:none;stroke:#08293F;stroke-width:3.8963;stroke-linecap:round;stroke-linejoin:round;stroke-miterlimit:10;" d="
					M444.6,612c-1-3.8-2.4-6.8-2.4-6.8"/>
				
					<path style="fill:none;stroke:#08293F;stroke-width:3.8963;stroke-linecap:round;stroke-linejoin:round;stroke-miterlimit:10;" d="
					M413,680.4c3.1,4.3,17,5.8,19-2.2"/>
				
					<path style="fill:none;stroke:#08293F;stroke-width:3.8963;stroke-linecap:round;stroke-linejoin:round;stroke-miterlimit:10;" d="
					M463,683.7c8.2,3.8,18.2-1.7,17.1-7.6"/>
			</g>
		</g>
	</g>
	<g>
		<path style="fill:#1B4B7A;" d="M562.8,738.7l-93.9,41.8l0,0L573,741.4l0,0c2.6-1.8,0.7-5.9-2.4-5L562.8,738.7z"/>
		<g>
			<g>
				<path style="fill:#FFFFFF;" d="M568.3,741.9c-3,0-5.5-2.4-5.5-5.5v-78.9c0-3,2.4-5.5,5.5-5.5c3,0,5.5,2.4,5.5,5.5v78.9
					C573.7,739.5,571.3,741.9,568.3,741.9z"/>
			</g>
			<g>
				<path style="fill:#FFFFFF;" d="M615,602.8c0,40.6-20.9,62.9-46.7,62.9s-46.7-22.3-46.7-62.9c0-40.6,33.8-113.6,46.7-113.6
					S615,562.2,615,602.8z"/>
			</g>
			<path style="fill:#4A8BCC;" d="M555.8,663.8c4,1.2,8.2,1.9,12.5,1.9c25.8,0,46.7-22.3,46.7-62.9c0-36.5-27.4-99.4-42.3-111.5
				c-1.5-0.7-3-1.4-4.4-2.1C598.1,547.1,587.4,670.8,555.8,663.8z"/>
		</g>
		<g>
			<g>
				<path style="fill:none;stroke:#08293F;stroke-width:3.8963;stroke-miterlimit:10;" d="M615,602.8c0,40.6-20.9,62.9-46.7,62.9
					s-46.7-22.3-46.7-62.9c0-40.6,33.8-113.6,46.7-113.6S615,562.2,615,602.8z"/>
			</g>
			<g>
				<path style="fill:none;stroke:#08293F;stroke-width:3.8963;stroke-miterlimit:10;" d="M573.7,665.7v70.8c0,3-2.4,5.5-5.5,5.5
					c-3,0-5.5-2.4-5.5-5.5v-70.8"/>
			</g>
		</g>
		<g>
			
				<path style="fill:none;stroke:#08293F;stroke-width:3.8963;stroke-linecap:round;stroke-linejoin:round;stroke-miterlimit:10;" d="
				M599.4,567.9c-1.8-8.3-3.4-14.1-3.4-14.1"/>
			
				<path style="fill:none;stroke:#08293F;stroke-width:3.8963;stroke-linecap:round;stroke-linejoin:round;stroke-miterlimit:10;" d="
				M568.3,656.9c30.6,0,36.6-30,36.6-50.3c0-7.8-1.3-17.5-3-26.4"/>
		</g>
	</g>
	<g>
		<path style="fill:#1B4B7A;" d="M705.8,658.1l-93.9,41.8l0,0L716,660.8h0c2.6-1.8,0.7-5.9-2.4-5L705.8,658.1z"/>
		<g>
			<g>
				<path style="fill:#FFFFFF;" d="M711.3,660.3c-3,0-5.5-2.4-5.5-5.5v-78.9c0-3,2.4-5.5,5.5-5.5s5.5,2.4,5.5,5.5v78.9
					C716.7,657.8,714.3,660.3,711.3,660.3z"/>
			</g>
			<g>
				<path style="fill:#FFFFFF;" d="M758,521.2c0,40.6-20.9,62.9-46.7,62.9s-46.7-22.3-46.7-62.9s33.8-113.6,46.7-113.6
					S758,480.6,758,521.2z"/>
			</g>
			<path style="fill:#4A8BCC;" d="M698.8,582.1c4,1.2,8.2,1.9,12.5,1.9c25.8,0,46.7-22.3,46.7-62.9c0-36.5-27.4-99.4-42.3-111.5
				c-1.5-0.7-3-1.4-4.4-2.1C741.1,465.5,730.3,589.1,698.8,582.1z"/>
		</g>
		<g>
			<g>
				<path style="fill:none;stroke:#08293F;stroke-width:3.8963;stroke-miterlimit:10;" d="M758,521.2c0,40.6-20.9,62.9-46.7,62.9
					s-46.7-22.3-46.7-62.9s33.8-113.6,46.7-113.6S758,480.6,758,521.2z"/>
			</g>
			<g>
				<path style="fill:none;stroke:#08293F;stroke-width:3.8963;stroke-miterlimit:10;" d="M716.7,584v70.8c0,3-2.4,5.5-5.5,5.5
					s-5.5-2.4-5.5-5.5V584"/>
			</g>
		</g>
		<g>
			
				<path style="fill:none;stroke:#08293F;stroke-width:3.8963;stroke-linecap:round;stroke-linejoin:round;stroke-miterlimit:10;" d="
				M741.2,484.6c-1.8-8.3-3.4-14.1-3.4-14.1"/>
			
				<path style="fill:none;stroke:#08293F;stroke-width:3.8963;stroke-linecap:round;stroke-linejoin:round;stroke-miterlimit:10;" d="
				M710.1,573.6c30.6,0,36.6-30,36.6-50.3c0-7.8-1.3-17.5-3-26.4"/>
		</g>
	</g>
</g>
</svg>
