<?xml version="1.0" encoding="utf-8"?>
<!-- Generator: Adobe Illustrator 23.0.0, SVG Export Plug-In . SVG Version: 6.00 Build 0)  -->
<svg version="1.1" xmlns="http://www.w3.org/2000/svg" xmlns:xlink="http://www.w3.org/1999/xlink" x="0px" y="0px"
	 viewBox="0 0 100 100" style="enable-background:new 0 0 100 100;" xml:space="preserve">
<g id="background">
	<path style="fill:#2169B3;" d="M50,99.1L50,99.1c-27.1,0-49.1-22-49.1-49.1v0c0-27.1,22-49.1,49.1-49.1h0c27.1,0,49.1,22,49.1,49.1
		v0C99.1,77.1,77.1,99.1,50,99.1z"/>
</g>
<g id="isotype">
	<g>
		<path style="fill:#FFFFFF;" d="M73.5,69.2c-1.7,0-3.1-1.4-3.1-3.1V50.2h-5V66c0,4.5,3.7,8.1,8.1,8.1H79v-5H73.5z"/>
		<path style="fill:#FFFFFF;" d="M29.6,66c0,1.7-1.4,3.1-3.1,3.1H21v5h5.5c4.5,0,8.1-3.7,8.1-8.1V50.2h-5V66z"/>
		<path style="fill:#FFFFFF;" d="M50,30.8c8.5,0,15.4,6.9,15.4,15.4h5c0-11.2-9.1-20.4-20.4-20.4S29.6,35,29.6,46.2h5
			C34.6,37.7,41.5,30.8,50,30.8z"/>
		<rect x="56.7" y="50.2" style="fill:#FFFFFF;" width="5" height="24"/>
		<rect x="38.2" y="50.2" style="fill:#FFFFFF;" width="5" height="24"/>
		<path style="fill:#FFFFFF;" d="M50,34.4c-6.5,0-11.8,5.3-11.8,11.8h5c0-3.7,3-6.7,6.7-6.7c3.7,0,6.7,3,6.7,6.7h5
			C61.8,39.7,56.5,34.4,50,34.4z"/>
	</g>
</g>
</svg>
