<?xml version="1.0" encoding="utf-8"?>
<!-- Generator: Adobe Illustrator 23.0.0, SVG Export Plug-In . SVG Version: 6.00 Build 0)  -->
<svg version="1.1" id="Layer_1" xmlns="http://www.w3.org/2000/svg" xmlns:xlink="http://www.w3.org/1999/xlink" x="0px" y="0px"
	 viewBox="0 0 500 300" style="enable-background:new 0 0 500 300;" xml:space="preserve">
<g>
	<g>
		<path style="fill:#2169B3;" d="M312.4,150.6c-4.6,0-8.3-3.7-8.3-8.3v-42.2h-13.4v42.2c0,11.9,9.7,21.6,21.6,21.6H327v-13.4H312.4z
			"/>
		<path style="fill:#2169B3;" d="M195.9,142.4c0,4.6-3.7,8.3-8.3,8.3H173V164h14.6c11.9,0,21.6-9.7,21.6-21.6v-42.2h-13.4V142.4z"/>
		<path style="fill:#2169B3;" d="M250,48.9c22.5,0,40.7,18.3,40.7,40.7h13.4c0-29.8-24.3-54.1-54.1-54.1s-54.1,24.3-54.1,54.1h13.4
			C209.3,67.2,227.5,48.9,250,48.9z"/>
		<rect x="267.8" y="100.2" style="fill:#2169B3;" width="13.4" height="63.8"/>
		<rect x="218.8" y="100.2" style="fill:#2169B3;" width="13.4" height="63.8"/>
		<path style="fill:#2169B3;" d="M250,58.5c-17.2,0-31.2,14-31.2,31.2h13.4c0-9.8,8-17.8,17.8-17.8c9.8,0,17.8,8,17.8,17.8h13.4
			C281.2,72.5,267.2,58.5,250,58.5z"/>
	</g>
	<g>
		<path style="fill:#2169B3;" d="M83.6,205.8c-0.5-6.7-4.9-17.9-29.5-17.9c-6.4,0-12.2,0.7-18.9,2.3l-0.5,0.1L27,261.9l0.7,0.1
			c7.9,1.6,14,2.3,20.3,2.3c13.8,0,24.1-3.2,29.8-9.4c3.7-4,5.4-9.2,5.1-15c-0.5-7.3-4.1-12.6-10.4-15.3
			C80,220.8,84.2,213.8,83.6,205.8z M43,230.7h13.2c0.1,0,0.1,0,0.2,0c8.5,0,13.2,3.6,13.6,10.3c0.2,3.2-0.6,5.8-2.4,7.8
			c-3.2,3.4-9.5,5.1-18.8,5.1v0c-2.8,0-5.4-0.2-8.2-0.5L43,230.7z M55.4,220.8H44.1l2.4-22.2c2.3-0.3,4.5-0.4,6.8-0.4
			c15.4,0,17.5,5.8,17.8,10.1c0.2,3.2-0.7,6-2.7,8.2C65.8,219.2,61.3,220.8,55.4,220.8z"/>
		<path style="fill:#2169B3;" d="M106.9,184.7c-2.7,0-5.1,1-6.8,2.8c-1.4,1.5-2.1,3.4-2,5.4c0.3,3.8,3.2,6.3,7.5,6.3l1.3,0l0-0.1
			c2.2-0.3,4.1-1.2,5.5-2.7c1.4-1.5,2.1-3.4,1.9-5.4C114.1,187.2,111.2,184.7,106.9,184.7z"/>
		<path style="fill:#2169B3;" d="M110.7,206.4L98.2,208L94,247.1c-0.7,6.1-0.7,11.6,0,16.5l0.1,0.7l12.2-1.6l-0.1-0.7
			c-0.6-4.6-0.6-8.8,0.1-15.1L110.7,206.4z"/>
		<path style="fill:#2169B3;" d="M161.4,232.4c3.2-3.5,4.7-7.7,4.4-12.3l0-0.4l0,0c-0.8-8.7-7.9-14.2-18.2-14.2
			c-7.8,0-15.1,3.2-20.5,8.9c-6.2,6.6-9.3,16-8.6,25.9c1,15.2,10.2,24,25,24c6.2,0,12.7-1.4,17.7-3.9l0.5-0.3l-2.4-9.6h-1l-0.2,0.1
			c-4.3,2.3-9.3,3.6-13.9,3.6c-7.8,0-12.1-3.7-13.4-11.6C148.8,242.1,157.4,236.8,161.4,232.4z M146.5,215.2c4.6,0,7.5,2.3,7.8,6.2
			c0.1,2.2-0.6,4.1-2.1,5.8c-3.5,3.8-11.1,6.1-21.5,6.4C131.9,222.8,138.4,215.2,146.5,215.2z"/>
		<path style="fill:#2169B3;" d="M211.4,205.5c-8.8,0-16,5.1-22.3,15.9c0.7-4.6,0.9-9.3,0.4-14.8l-0.1-0.8l-11.9,1.6l0.1,0.7
			c0.5,4.8,0.5,10.9,0,15.6l-4.2,39.4h11.7l1.1-10c1.9-18.7,12.7-37,22-37c1.6,0,2.9,0.5,3.8,1.6c1.5,1.7,2,4.8,1.4,8.8l-2.8,19.7
			c-0.8,5.6-0.8,10.8-0.1,17.4l0.1,0.8l12.2-1.6l-0.1-0.7c-0.6-6.2-0.5-10.6,0.3-16.1l2.8-19.4c1.1-7.3,0-13.1-3.2-16.7
			C220,207,216.2,205.5,211.4,205.5z"/>
		<path style="fill:#2169B3;" d="M273.3,206.5l0,0.8c0.2,14.8-5.8,31.9-15.7,44.8c-1-5.5-2.4-12.5-3.3-16.6l-7.3-29.8l-13.4,1.8
			l16,55.8l1.2,0l0,0h10.5l0.2-0.2c15.2-16.4,24.6-37.8,24.6-55.7l0-0.7H273.3z"/>
		<path style="fill:#2169B3;" d="M333.7,232.4c3.2-3.5,4.7-7.7,4.4-12.3l0,0c-0.6-8.9-7.8-14.7-18.2-14.7c-7.8,0-15.1,3.2-20.5,8.9
			c-6.2,6.6-9.3,16-8.6,25.9c1,15.2,10.2,24,25,24c6.2,0,12.7-1.4,17.7-3.9l0.5-0.3l-2.4-9.6h-1l-0.2,0.1c-4.3,2.3-9.3,3.6-13.9,3.6
			c-7.8,0-12.1-3.7-13.4-11.6C321.2,242.1,329.7,236.8,333.7,232.4z M318.9,215.2c4.6,0,7.5,2.3,7.8,6.2c0.1,2.2-0.6,4.1-2.1,5.8
			c-3.5,3.8-11.1,6.1-21.5,6.4C304.3,222.8,310.7,215.2,318.9,215.2z"/>
		<path style="fill:#2169B3;" d="M383.7,205.5c-8.8,0-16,5.1-22.3,15.9c0.7-4.6,0.9-9.3,0.4-14.8l-0.1-0.8l-11.9,1.6l0.1,0.7
			c0.5,4.8,0.5,10.9,0,15.6l-4.2,39.4h11.7l1.1-10c1.9-18.7,12.7-37,22-37c1.6,0,2.9,0.5,3.8,1.6c1.5,1.7,2,4.8,1.4,8.8l-2.8,19.7
			c-0.8,5.6-0.8,10.8-0.1,17.4l0.1,0.8l12.2-1.6l-0.1-0.7c-0.6-6.2-0.5-10.6,0.3-16.1l2.8-19.4c1.1-7.3,0-13.1-3.2-16.7
			C392.3,207,388.6,205.5,383.7,205.5z"/>
		<path style="fill:#2169B3;" d="M426.4,206.4l-12.5,1.7l-4.2,39.1c-0.7,6.1-0.7,11.6,0,16.5l0.1,0.7l12.2-1.6l-0.1-0.7
			c-0.6-4.6-0.6-8.8,0.1-15.1L426.4,206.4z"/>
		<path style="fill:#2169B3;" d="M422.6,184.7c-2.7,0-5.1,1-6.8,2.8c-1.4,1.5-2.1,3.4-1.9,5.4c0.3,3.8,3.2,6.3,7.5,6.3l1.3,0l0-0.1
			c2.2-0.3,4.1-1.2,5.5-2.7c1.4-1.5,2.1-3.4,1.9-5.4C429.9,187.2,426.9,184.7,422.6,184.7z"/>
		<path style="fill:#2169B3;" d="M472.2,205.4c-8.9,0-16,5-21.4,15.2c0.6-4.3,0.7-8.8,0.3-14l-0.1-0.8l-11.9,1.6l0.1,0.7
			c0.5,4.8,0.5,10.9,0,15.6l-4.2,39.4h11.7l1.1-10c1.8-20.6,11-35.4,21.7-35.4c0.1,0,0.1,0,0.2,0l2.3,0l1-12.5H472.2z"/>
	</g>
</g>
</svg>
